<svg xmlns="http://www.w3.org/2000/svg" fill="none" viewBox="0 0 135.24 178.35"><metadata xmlns:fl="https://football-logos.cc/brazil/sport-recife">dl1_9f8d5ffcf7924b8865a34ffff06322781f0ca83117a3c376542ddf6718836aff</metadata><!-- Source: https://football-logos.cc --><path fill="#FFE300" fill-rule="evenodd" d="m114.927.202 4.703 14.655 15.258-.04-12.348 9.038 4.741 14.615-12.354-9.075-12.348 9.075 4.781-14.615-12.388-9.037 15.259.04z" clip-rule="evenodd" data-source="https://football-logos.cc"></path><path fill="#D3D5D6" fill-rule="evenodd" d="m67.365 0 2.905 9.115 9.483-.039-7.686 5.624 2.95 9.076-7.652-5.624-7.69 5.624 2.988-9.076-7.73-5.624 9.522.04z" clip-rule="evenodd"></path><path fill="#FFE300" fill-rule="evenodd" d="m19.96.202 4.658 14.655 15.298-.04-12.388 9.038L32.27 38.47l-12.31-9.075L7.608 38.47l4.741-14.615L0 14.818l15.259.04z" clip-rule="evenodd"></path><path fill="#000" fill-rule="evenodd" d="M3.202 56.42c.04 8.835.489 17.787 1.562 25.977l31.523-32.751c-1.158.359-2.529.752-3.686 1.072-9.6 2.61-19.562 4.254-29.399 5.702M9.736 105.213c2.112 6.982 4.72 13.774 7.944 20.077l74.809-77.968c-5.22-2.049-10.365-4.597-14.989-7.886a44 44 0 0 1-2.708-2.043zM28.376 142.314c3.905 5.102 8.461 10.041 13.439 14.576l90.264-94.48c.039-1.965.073-4.025.112-5.99-6.174-.926-12.427-1.886-18.562-3.17z" clip-rule="evenodd"></path><path fill="#D61F27" fill-rule="evenodd" d="M4.893 81.981c1.068 8.072 2.68 15.823 4.888 23.221l65.034-67.804a55.7 55.7 0 0 1-7.079-6.724c-2.944 3.295-6.208 6.225-9.837 8.75-6.646 4.715-14.079 7.881-21.77 10.26L4.893 81.977zm5.776 26.089a124 124 0 0 0 2.286 6.455 135 135 0 0 1-2.286-6.455m5.067 13.083c.63 1.37 1.28 2.723 1.96 4.058L92.4 47.305c-5.219-2.049-10.242-4.58-14.86-7.875 7.647 5.422 16.332 8.796 25.298 11.282 3.556.971 7.169 1.807 10.815 2.554l-85.236 89.048A110 110 0 0 0 40.528 155.7c-10.786-10.108-18.921-21.682-24.792-34.552m25.022 34.771q.464.432.927.853l90.428-94.486.118-5.866c-.096 20.796-2.927 39.908-9.315 56.965 2.202-5.888 3.978-12.017 5.365-18.376l.186-.893-71.057 74.775c-6.14-4.002-11.685-8.335-16.668-12.977m73.584-24.416c.141-.236.275-.472.416-.713-.141.236-.275.471-.416.713m2.989-5.417c.157-.308.314-.623.472-.931q-.237.461-.472.931m1.461-2.941c.353-.729.691-1.465 1.028-2.206-.337.741-.68 1.471-1.028 2.206m1.898-4.17" clip-rule="evenodd"></path><path fill="#000" fill-rule="evenodd" d="M57.186 168.902c3.264 2.127 6.971 4.176 10.595 6.101 34.657-18.629 53.146-46.053 60.556-79.989l.135-.892z" clip-rule="evenodd"></path><path fill="#000" fill-rule="evenodd" d="M67.882 26.206c7.382 9.284 16.562 15.065 27.708 19.09 11.157 4.03 24.287 6.297 39.562 8.542l.079.012v.078c.157 27.301-4.225 51.857-14.882 72.866-10.652 21.009-27.58 38.459-52.49 51.537l-.044.023-.04-.023c-24.915-13.078-41.848-30.533-52.511-51.537C4.595 105.791.202 81.229.365 53.928v-.078l.073-.012c15.27-2.245 28.405-4.512 39.568-8.542 11.151-4.025 20.342-9.806 27.741-19.09l.068-.084zM94.17 48.254c-10.602-3.828-19.332-8.745-26.36-17.546-7.045 8.8-15.786 13.723-26.388 17.546-10.612 3.833-23.078 5.983-37.584 8.122-.146 25.903 4.028 49.207 14.146 69.133 10.118 19.937 26.186 36.5 49.82 48.916 23.64-12.416 39.697-28.979 49.804-48.916 10.112-19.926 14.275-43.23 14.129-69.133-14.5-2.139-26.972-4.294-37.579-8.122" clip-rule="evenodd"></path><path fill="#FDD800" fill-rule="evenodd" d="M31.304 81.56c-6.73-4.097-10.04-10.44-10.281-20.442 5.337-.202 8.449-1.886 10.32-4.176 1.831 2.29 4.623 3.452 10.079 3.772-.4 10.642-3.31 16.71-10.118 20.846m-.478-16.507h-.36v.04q0 .522.085 1.054c.899.04 1.91.197 2.69.399-.252-.982-1.01-1.493-2.415-1.493m-1.511 0h-.68v1.201c.236-.04.483-.073.747-.09a9 9 0 0 1-.067-1.072zm-.68 2.593v1.987h1.607c-.22-.713-.444-1.426-.613-2.144a6 6 0 0 0-.994.157m2.843 1.948c1.106-.157 1.651-.758 1.809-1.695a10 10 0 0 0-2.444-.421c.163.595.354 1.19.54 1.796l.095.325zm-2.006 6.224v2.487h.236c.04-.365.163-.522.64-.724a2.7 2.7 0 0 0 1.394-1.162c.376-.612.567-1.33.607-2.094a7 7 0 0 0 .893-.168l.213.612c.079.286.236.645.079.926-.079.045-.118.123-.236.123v.32l2.23-.039v-.32a3.2 3.2 0 0 1-.517-.561c-.118-.157-.196-.365-.28-.6l-.304-.86c.045-.022.096-.044.14-.067.759-.365.759-.241 1.118.118l.203-.118-.72-2.33-.196.124c0 .197-.123.399-.163.399-.225.224-.517.41-.843.567l-.752-2.133c.6-.427.966-1.213 1.14-1.953.348.213.59.47.534.79v.04l.196.084.798-2.408-.202-.078c-.079.04-.242.202-.399.28-.079.04-.202.04-.315.04-.028 0-.196-.084-.5-.197-.163-1.768-1.427-3.053-3.168-3.053h-.652c.101-.32.259-.606.455-.842.197-.202.4-.365.674-.483.439-.157.837-.28.995.405h.241v-2.29h-.241c0 .364-.315.404-.556.443-.837.118-1.472.522-1.95 1.044-.421.471-.685 1.066-.831 1.723h-2.281v.28a.7.7 0 0 1 .236.242c.04.084.078.241.078.443v1.746c-2.022.769-2.51 2.442-2.51 3.755 0 1.083.398 2.369 1.595 3.255.27.203.578.354.915.483v1.117c0 .202-.039.365-.078.444-.04.078-.197.157-.32.202v.32h1.949v-.32c-.157-.045-.315-.124-.36-.203-.039-.078-.039-.246-.039-.443v-.825c.46.073.938.101 1.433.101.387 0 .758-.006 1.1-.022-.044.471-.162.909-.387 1.263-.477.763-.916 1.004-1.073.123h-.236zm1.663-2.694a16 16 0 0 0-.478-2.127h-2.022v2.032c.652.09 1.59.123 2.348.095h.146m-3.651-.533v-4.496c-.9.55-1.259 1.392-1.236 2.256.033.803.455 1.69 1.236 2.24m5.325.264-.662-1.937c-.096 0-.191 0-.281.011a16 16 0 0 1 .427 2.044q.251-.05.51-.118" clip-rule="evenodd"></path><path fill="#000" fill-rule="evenodd" d="M31.034 82.01c-3.45-2.1-6.023-4.783-7.77-8.218-1.736-3.418-2.64-7.583-2.764-12.663l-.011-.521.517-.017c2.6-.096 4.651-.556 6.275-1.263 1.59-.696 2.775-1.64 3.657-2.722l.41-.506.405.506c.854 1.072 1.944 1.88 3.455 2.458 1.556.6 3.567.96 6.242 1.117l.516.028-.022.516c-.202 5.4-1.045 9.643-2.708 13.073-1.674 3.457-4.168 6.078-7.668 8.2l-.27-.449-.27.45zm-6.837-8.7c1.606 3.165 3.96 5.652 7.107 7.622 3.174-1.982 5.449-4.412 6.994-7.594 1.54-3.189 2.348-7.134 2.578-12.13-2.533-.18-4.488-.556-6.039-1.15-1.472-.562-2.59-1.33-3.494-2.313-.927 1.005-2.118 1.88-3.646 2.548-1.624.707-3.63 1.185-6.124 1.325.163 4.681 1.028 8.526 2.63 11.686" clip-rule="evenodd"></path><path fill="#000" fill-rule="evenodd" d="M27.079 76.138v-.32c.118-.045.28-.123.32-.202.04-.078.079-.247.079-.443V64.817c0-.202-.04-.36-.08-.443a.7.7 0 0 0-.235-.242v-.28h4.146c1.87 0 3.185 1.487 3.185 3.452 0 .88-.36 2.368-1.275 3.014l1.517 4.3c.079.24.157.443.28.6.119.157.282.359.518.561v.32l-2.23.04v-.32c.117 0 .157-.08.235-.124.163-.28 0-.64-.078-.926l-1.315-3.85c-.36 0-.635.078-.994.078H28.64v4.176c0 .202 0 .365.04.443s.196.157.36.202v.32h-1.961m3.747-11.085h-2.191v4.58h2.23c1.792 0 2.467-.881 2.467-2.369-.04-1.448-.798-2.211-2.506-2.211" clip-rule="evenodd" data-source="https://football-logos.cc"></path><path fill="#000" fill-rule="evenodd" d="m34.972 71.48.197-.124.719 2.33-.203.117c-.36-.364-.36-.482-1.117-.117-1.276.6-2.59.763-4.5.763-1.355 0-2.63-.242-3.506-.881-1.197-.887-1.596-2.173-1.596-3.256 0-1.768.877-4.176 5.18-4.176 1.157 0 2.59.236 3.506.522.837.202 1.275.444 1.32.444.112 0 .236 0 .315-.04.157-.078.32-.241.398-.28l.203.078-.798 2.408-.197-.084v-.04c.085-.437-.399-.763-.955-.998-.876-.399-2.236-.685-3.623-.685-3.034 0-4.107 1.403-4.068 2.89.04.966.635 2.05 1.753 2.532.478.196 1.91.28 2.989.241.713 0 2.91-.32 3.826-1.246.039 0 .163-.202.163-.398" clip-rule="evenodd"></path><path fill="#000" fill-rule="evenodd" d="M29.472 75.818h.236c.163.882.601.64 1.073-.123.36-.561.438-1.325.399-2.127-.118-1.286-.517-2.571-.916-3.856-.477-1.527-.955-3.054-.955-4.62 0-1.122.281-2.206.955-2.969.478-.522 1.113-.926 1.95-1.044.241-.045.556-.079.556-.443h.241v2.29h-.241c-.158-.685-.556-.562-.995-.404-.28.117-.477.28-.68.482-.438.522-.64 1.286-.64 2.088 0 1.37.478 2.773.916 4.176.399 1.364.837 2.767.955 4.176.079 1.089-.079 2.127-.601 2.975-.32.522-.759.92-1.393 1.162-.478.202-.602.359-.64.724h-.237v-2.487zM78.394 93.443c0 .724-.04 1.448-.04 2.166-.04 2.33-.123 4.659.275 6.629.242 1.167.517 2.329 1.04 3.53.517 1.207 1.19 2.408 2.309 3.817.399.562.916 1.201 1.472 1.847.837 1.044 1.713 2.049 2.309 3.053.118.202.241.399.36.601.039 0 .039.039.039.039.556.763 1.432 1.409 2.393 1.847a7.8 7.8 0 0 0 3.388.763c1.353 0 2.707-.483 3.702-1.409.876-.802 1.477-1.964 1.556-3.53.197-3.609-1.995-7.55-4.46-11.883-1.158-2.088-2.388-4.254-3.428-6.544-.994-2.167-1.753-4.255-2.19-6.466-.478-2.167-.602-4.457-.36-6.949a10.55 10.55 0 0 1 1.314-4.378c.72-1.325 1.675-2.408 2.792-3.132.517-.36 1.113-.6 1.714-.763a6.1 6.1 0 0 1 1.91-.28c2.23 0 4.303 1.122 5.775 3.17 1.276 1.847 2.152 4.418 2.191 7.628.36.483.798 1.286 1.158 2.167.438 1.044.797 2.211.994 3.25.197.802.236 1.61.236 2.413.039.803.039 1.527.197 2.127.084.483.325.96.556 1.527.444 1.123 1 2.369 1 4.058 0 .404-.438.64-.759.404-.399-.28-.674-.482-.915-.64-.36-.28-.675-.521-1.433-1.043-.197-.118-.556-.32-.916-.523-.084-.039-.123-.084-.202-.123-.798-.443-1.713-.965-2.152-1.364a8.2 8.2 0 0 1-1.471-2.25c-.439-1.005-.759-2.128-.961-3.172-.158-1.083-.197-2.447-.118-3.693.079-1.325.275-2.57.562-3.25.078-.32.236-.763.398-1.207.158-.483.354-.96.354-1.162-.118-1.122-.64-2.447-1.55-3.373-.759-.724-1.714-1.207-2.832-1.123-.994.079-1.713.562-2.23 1.207-.596.719-.916 1.605-1.197 2.532-.28.965-.36 2.127-.32 3.418.079 1.442.32 3.008.714 4.574 1.033 4.3 2.87 7.308 4.899 10.519.876 1.403 1.831 2.89 2.707 4.535a22.8 22.8 0 0 1 2.034 5.181c.438 1.683.674 3.412.596 5.057-.079 2.857-1.118 5.422-2.871 7.19-1.674 1.768-4.023 2.89-6.81 2.89a9.9 9.9 0 0 1-2.949-.325 6.4 6.4 0 0 1-2.112-1.005l-.236.842c-.118.399-.079.926 0 1.482.079.685.32 1.409.64 2.133.355.926.753 1.768 1.074 2.408.32.6.556 1.004.719 1.162.236.202.477.443.713.679 1.118 1.128 2.113 2.088 3.146 2.57.197.085.444.118.64.163.675.163 1.197.281 1.197 1.044 0 .483-.084.764-.202 1.083-.079.208-.163.405-.197.646-.117.522-.196 1.128-.28 1.689-.04.601-.08 1.202-.08 1.684 0 .64.08 1.409.243 2.212.202.802.438 1.605.634 2.368.124.36.242.64.4.999.24.607.555 1.331.836 2.369v.079l.4.202c.595.28 1.235.64 1.19 1.33-.04.556-.595 1.083-1.19 1.645-.321.28-.602.522-.799.757-.039.045-.241.202-.32.202-.314 0-.674 0-1.197.04h-.438c-.36-.04-1.112.561-1.55.959a.8.8 0 0 0-.32.281v-.039c-.478.398-1.596.522-2.59.32-.714-.163-1.394-.444-1.871-.966a3.4 3.4 0 0 1-.635.163c-.32.039-.601.079-.916.039-.399 0-.876-.039-1.275-.157a3 3 0 0 0-.28-.123c0 .078 0 .123.044.202q0 .42.118.842c.04.241-.163.522-.36.6-.516.157-.955.079-1.393-.078-.36-.163-.64-.365-.837-.64a3.3 3.3 0 0 1-.517-.842c-.039-.202-.039-.359-.039-.522-.124.039-.202.202-.32.32-.079.039-.118.118-.197.202-.32.32-.635.443-.994.078l-.04-.039c-.483-.6-.68-1.324-.68-2.048-.039-.921.197-1.886.439-2.246.04-.202.118-.359.196-.527 0-.04 0-.079.04-.157.078-.281.275-.719.753-1.202.438-.482 1.157-1.004 2.354-1.526.674-.281 2.23.92 3.42.802.124 0 .242-.039.36-.039v-.404c.118-3.895.118-5.22-.758-6.466-.399-.522-.876-.926-1.393-1.285-.556-.365-1.197-.646-1.871-.887-1.315-.438-2.466-.921-3.624-1.443a56 56 0 0 1-3.342-1.852c-2.512-1.527-3.983-3.575-5.017-5.899-.242-.522-.438-1.083-.64-1.65-.596.241-1.63.645-2.871 1.044-.08.084-.118.084-.197.118-.995.404-2.708 1.611-4.062 2.935-.955 1.005-1.713 2.043-1.753 2.891-.078.606 0 1.167.079 1.768.275 1.65.517 3.216-2.152 5.265-.157.522-.36 1.044-.556 1.526-.399 1.044-.837 2.088-.798 3.452.478.528.675 1.162.635 1.886-.078.601-.438 1.286-.916 1.808-.517.522-1.112.886-1.713.886-.197.04-.478 0-.792-.045-.444-.039-.96-.078-1.118-.039-1.596.719-2.826.842-3.742.764-.837-.124-1.432-.444-1.753-.725-.438.163-.797.32-1.118.36l-.078.039a.56.56 0 0 1-.276-.079l-.752.646c-.079.084-.36.118-.478.084-.399-.123-.758-.404-1.034-.763-.039-.079-.117-.202-.157-.32-.118.398-.202.724-.68.842-.36.078-1-.157-1.556-.724-.399-.36-.758-.842-1.033-1.488 0-.039-.04-.039-.04-.078-.04-.079-.04-.202-.078-.281v-.079c-.04-.117-.124-.202-.158-.319-.078-.163-.163-.365-.28-.562a4 4 0 0 1-.242-1.925c.078-.601.32-1.246.758-1.813.36-.522.955-.999 1.635-1.364a4.3 4.3 0 0 1 1.994-.6c1.118 0 1.99.561 2.871 1.122.72.438 1.433.881 2.113.803.32-.045.556-.124.758-.281.28-.163.556-.443.713-.685.197-.28.197-.679.197-1.122v-.281c0-.64 0-1.403-.04-2.127 0-.763-.039-1.566-.039-2.324-.039-.769-.039-1.611-.078-2.374 0-1.65-.04-3.211-.32-4.816-.158-.803-.32-1.644-.354-2.408-.08-1.403.039-2.896.438-4.299.399-1.443 1.157-2.767 2.354-4.013 3.106-3.295 7.488-3.576 12.59-3.896.354 0 .674-.045 1.033-.045-.118-.235-.236-.477-.399-.724v-.039c-1.033-2.049-2.707-3.693-4.623-5.54-2.63-2.649-5.775-5.742-8.601-11.203-.72-.079-1.478-.32-2.27-.6-.876-.32-1.792-.803-2.786-1.37-.877-.522-1.433-.96-2.028-1.443-.72-.561-2.99-2.284-4.023-2.33-.197 0-.596.366-.994.686-.281.28-.602.567-.877.724-.517.241-.916.202-1.197-.365-.117-.202-.117-.483-.157-.803-.196.079-.477.242-.792.399-.719.398-1.315.64-1.916.64-.635 0-1.196-.197-1.792-.719-.758-.606-1.517-1.448-2.19-2.33-.636-.802-1.113-1.689-1.355-2.368-.28-.802-.797-2.531.158-2.969-.36-.645-.635-1.729-.557-2.492.32-.28.871-.404 1.315-.438-.157-.483-.399-1.246-.478-1.768.439-.365 1.433-.528 1.675-.561-.04-.079-.079-.118-.079-.202-.118-.404-.236-.803-.236-1.286 1.236-.926 4.028-.398 4.225.203.438.443.713.965.915 1.566.163.437.281.88.439 1.324.236.96.517 1.847.994 2.206l.079.079c.758.842 1.393 1.128 2.151 1.487.32.163.635.32.995.483.32.202.758.443 1.197.64 1.556.841 3.028 1.644 5.14 2.969.118-.04.197-.124.275-.197a87 87 0 0 0-1.831-6.067c-.601-1.684-1.197-3.21-1.753-4.216a7 7 0 0 1-.438-1.043c-.158-.36-.197-.483-.798-.842-.118-.079-.236-.163-.399-.203-.399-.157-.713-.28-.798-.802-.078-.28.04-.724.281-1.083l.079-.079c-.478-.241-.916-.645-1.315-1.083-.635-.764-1.236-1.69-1.59-2.728a13 13 0 0 1-.556-2.088 13.7 13.7 0 0 1-.202-2.369c0-.202.242-.443.438-.443.601-.04 1.118-.04 1.55.04v-.08c-.078-.24-.157-.56-.28-.88-.118-.32.118-.685.438-.685.438.044.798 0 1.157-.04.197 0 .438-.039.64-.039 0-.045 0-.078-.038-.123-.124-.32-.203-.685-.08-.92 0-.08.197-.242.276-.282.68-.24 1.315-.28 1.955-.24a.8.8 0 0 0 .32.044c0-.202.079-.404.163-.522.04-.084.276-.202.354-.241.64 0 1.157.039 1.635.157.438.084.877.202 1.236.443.399.236.798.562 1.112.881a5.9 5.9 0 0 1 1.439 3.054c.196 1.122.039 2.29-.517 3.294-.242.36-.478.68-.798.96-.118.118-.242.242-.36.32-.398.36-.68.64-.6 1.286.32.802 1.112 2.166 2.112 3.654.837 1.285 1.831 2.649 2.825 3.777 1.635-1.409 3.029-2.688 4.54-3.654h.04a14.3 14.3 0 0 1 2.91-1.527v-.039c-.04-.045-.04-.078-.08-.078q-.057 0-.359.117c-.399.202-.916.483-1.792.404-.202 0-.36-.039-.517-.078-.477-.163-.798-.522-.994-.966-.158-.359-.197-.802-.158-1.206 0-.242.04-.483.118-.685a2 2 0 0 0-.236-.685c-.157-.359-.32-.718-.32-1.162 0-.6.674-1.083 1.236-1.526.04-.04.157-.079.197-.118.118-.32.241-.64.399-.881.039-.04.078-.124.123-.163-.32-.124-.522-.444-.68-.724-.157-.36-.241-.6-.28-.803q0-.039-.04-.078c-.399-.242-1.073-.646-1.393-2.01-.163-.92 0-1.566.118-2.206.079-.404.157-.802.157-1.206-.078-.523-.202-.921.079-1.325.242-.365.719-.6 1.792-.561.399 0 1.157-.158 1.955-.399.596-.163 1.23-.404 1.674-.68.517-.684 1.04-1.127 1.714-1.486.674-.32 1.511-.523 2.629-.685.118 0 .36-.04.596-.079.522-.04 1.157-.163 1.752-.202.276-.522.556-1.044.916-1.448.438-.6.955-.965 1.635-1 1.079-.044 2.19.72 2.95 1.763.398.522.674 1.123.83 1.73.085.358.119.723.119 1.082.04.079.084.163.084.242.157.359.393.802.713 1.206.242.32.562.562.838.719.556.202 1.112.64 1.59 1.123.556.521 1.072 1.122 1.432 1.728.242.36.36.68.478 1.083.078.242.157.483.275.685.157.404.438.764.798 1.129.398.359.876.723 1.32 1.083a4.4 4.4 0 0 1 1.314 1.566c.517 1.162.517 2.33.596 3.57.04.684.197 1.403.556 1.97.36.56.955 1.083 1.871 1.324.163.04.36.28.36.444 0 .118 0 .241-.04.359-.04.325-.236.645-.517.847-.28.242-.635.36-1.033.36.078 1.285-.158 2.649-.4 3.974-.24 1.364-.477 2.57-1.033 3.81-.202.444-1.073 2.37-1.472 2.493-.079 2.088.242 4.058.68 5.063.079.162.197.359.118.482-.118.163-.399.202-.596.202-.6-.039-1.118-.118-1.713-.482.123.28.241.522.36.763 0 0 .039.118.039.157.04.124 0 .242 0 .32.32.28.719.404.719.404.163.079.438.079.438.242.04.162-.157.482-.28.6-.68.522-1.557.764-2.394.764-1.112.039-2.191-.281-2.747-.607h-.596zM46.399 148.74c-.157-.241-.32-.398-.36-.482-.078 0-.162 0-.236.039-.117 0-.28.045-.398.045.039.157.118.359.196.477.118.118.203.241.32.286zm-2.506-.606a6 6 0 0 0-.398-.118c-.236-.039-.517 0-.798.079.078.163.236.281.32.398.36.326.635.483.713.444.08-.045-.078-.039-.039-.124.04-.202.079-.443.202-.684m39.596 5.231c.197 0 .399.039.477-.326l-.32-1.324-1.033-.118h-.439c.197.96.601 1.605 1.315 1.768m-2.388-2.734-.078-1.161-.674-.562c-.354.601-.439 1.409-.197 2.447.163.163.36.483.556.444l.399-1.168zm-9.404-96.973c.241-.443.595-.685.955-.763.32-.04.64-.04.837 0 .438.084.876.404 1.197.842.32.398.556.926.6 1.442.119.764 0 1.37-.28 1.847a1.7 1.7 0 0 1-.32.443c.477-.32.758-.724.915-1.122.118-.404.079-.881 0-1.364-.157-.483-.36-.966-.674-1.364-.595-.803-1.432-1.409-2.152-1.409-.359.04-.68.28-.955.64-.314.404-.595.965-.876 1.527-.04.084-.275.286-.399.286-.68.04-1.393.118-1.994.241-.157 0-.36.04-.596.04-1.033.162-1.752.32-2.348.606-.517.28-.955.679-1.399 1.246 0 .04-.118.118-.118.163-.556.325-1.275.6-1.989.802-.915.28-1.792.444-2.27.444-.64 0-.876.039-.954.117 0 .085.039.36.078.685v.04c.04.56-.04 1.044-.157 1.487-.118.561-.242 1.083-.118 1.807.202.966.64 1.207.916 1.364.241.163.438.241.522.561.04.281.118.562.236.803a.3.3 0 0 0 .079-.196c.196-.365.354-.803.635-.966.6-.359 1.275-.359 1.95-.28.555.039 1.392.6 1.993 1.246.557.6.956 1.324.877 1.886-.118.64-.674 1.285-1.354 1.762-.635.443-1.433.763-2.034.606-.758-.123-1.393-1.605-1.753-2.166-.118.157-.196.398-.28.64 0 .039-.118.202-.158.24-.078.085-.241.164-.36.282-.359.28-.797.6-.797.718 0 .241.118.522.197.763.162.36.32.719.32 1.123a1 1 0 0 1-.04.157c-.044.163-.084.32-.084.522 0 .28 0 .561.118.763.079.202.197.36.399.404.04.04.163.04.242.04.68.078 1.033-.118 1.353-.28.32-.119.517-.242.877-.203.32 0 .477.163.68.404.078.079.196.202.32.32.556-.163 1.112-.28 1.713-.404.838-.196 1.675-.645 2.394-1.246.797-.68 1.472-1.527 1.91-2.408.36-.763.595-1.527.595-2.29.079-.881 0-1.684-.241-2.369-.04-.241-.158-.56.241-.684.478-.163.601.117.68.364.281.842.399 1.763.32 2.768a8.5 8.5 0 0 1-.719 2.649c-.517.965-1.275 1.964-2.152 2.688-.837.764-1.831 1.286-2.865 1.488-.595.123-1.196.28-1.713.443-.079.045-.197.084-.236.045-1.275.444-2.348 1.005-3.388 1.645-1.511 1.004-2.87 2.245-4.505 3.693q.065-.06.241 0c.438.163.32.438.236.685-.197.443-.36.88-.477 1.246-.281.763-.517 1.364-.759 1.925-.078.36-.118.64-.118.926.04.163.04.32.079.483.955-.842 1.432-2.447 1.831-3.693.079-.32.197-.64.32-.921a.46.46 0 0 1 .596-.32c.202.084.399.365.275.646-.078.28-.196.56-.275.926-.079.157-.118.32-.157.482a9 9 0 0 0-.079 1.123c0 .606.04 1.252.236 1.891.399-.24.916-.724 1.157-2.29 0-.24 0-.482.04-.724 0-.32.039-.64.039-.965 0-.236.242-.404.438-.404.242 0 .517.163.517.443 0 .646-.04 1.201-.079 1.69-.044 1.487.118 2.531 1.95 3.334a13.2 13.2 0 0 1-.079-2.852c.118-1.167.36-2.25.837-2.772.118-.163.4-.242.601-.163.197.078.236.32.236.522-.32 2.486 1.354 7.067 3.944 7.673a17 17 0 0 1-.32-3.256c0-1.364.118-2.772.438-3.98.04-.24.32-.398.562-.358.236.039.399.28.399.521-.079.607-.079 1.129-.079 1.684 0 2.492.674 4.378 1.753 5.709.994 1.285 2.393 2.043 3.787 2.206a13 13 0 0 1-1.276-2.812c-.595-2.004-.916-4.137-.837-5.86 0-.242 0-.6.478-.562.517 0 .517.365.477.606-.078 1.606.197 3.654.798 5.501.556 1.605 1.275 3.053 2.27 4.013.837.803 1.674.926 2.668.966-.758-1.123-1.275-2.212-1.59-3.334-.399-1.364-.556-2.812-.517-4.373.04-1.083.242-2.172.557-3.21.078-.202.196-.562.64-.404.478.162.36.482.281.684-.28.966-.483 1.965-.522 2.93v1.044c.039-.123.162-.163.398-.202.523-.04.523.202.557.444.32 3.934 2.91 5.298 4.1 5.46a12.2 12.2 0 0 1-.836-2.53c-.281-1.168-.439-2.37-.439-3.413 0-.842.08-1.69.158-2.447a9 9 0 0 1 .438-2.049c.079-.202.202-.645.64-.483.478.163.36.6.281.803-.196.483-.32 1.128-.399 1.807-.078.685-.163 1.488-.118 2.212.04-.404.118-.764.236-1.168.079-.398.197-.802.242-1.285.04-.28.118-.685.596-.645.477.078.398.522.359.763-.079.561-.157 1.005-.275 1.403-.236.926-.32 1.729-.124 2.689.157.56 1.079 1.807.478 2.166-.4.28-.596-.078-.72-.28a4.7 4.7 0 0 1-.64-1.527c.04.32.079.6.163.92.399.803.837 1.246 1.197 1.488.157.118.36.196.517.241-.36-1.207-.517-2.975-.478-4.776.04-1.808.36-3.694 1.034-5.142.123-.202.399-.438.6-.404.197.04.36.36.36.606 0 .36-.039.803-.118 1.364.32-.926.478-1.847.635-2.773.281-1.487.562-2.969.32-4.254-.044-.163-.044-.32.04-.444.196-.202.595-.084.955-.084a.8.8 0 0 0 .601-.241c-.955-.36-1.59-.92-1.994-1.605-.478-.724-.675-1.606-.72-2.453-.039-.522-.039-1-.118-1.521-.117.123-.28.241-.438.359-.438.404-.921.685-1.472.965-.398.197-.876-.28-.64-.684.04-.124.118-.281.197-.444-.08 0-.08.04-.124.084-.753.685-1.714.882-2.747.966-.36 0-.64-.365-.438-.724.078-.163.117-.32.241-.522-.798.926-1.87 1.723-3.107 2.166-.398.124-.758-.28-.595-.645.157-.399.32-.842.399-1.28-.72.926-1.714 1.645-2.714 2.01-.36.123-.713-.242-.595-.601.32-.965.517-1.847.517-2.773-.079-.926-.281-1.807-.916-2.812-.118-.202-.32-.483.079-.718.398-.287.6 0 .719.196.719 1.162 1.033 2.25 1.033 3.295.04.685-.039 1.364-.196 2.049a5.5 5.5 0 0 0 1.314-1.24c.556-.725.955-1.567.995-2.409 0-.202.241-.443.477-.443s.438.202.478.443c.04.803 0 1.645-.118 2.487-.04.365-.118.724-.242 1.083a7.5 7.5 0 0 0 1.792-1.527c.714-.88 1.118-1.807.955-2.447-.044-.241.118-.483.32-.522.237-.079.557.045.635.241.197.562.242 1.286.118 2.05-.078.521-.196 1.043-.438 1.565.556-.078.995-.28 1.394-.6.516-.483.915-1.41.955-3.015a9 9 0 0 0-.675-.6c-.438-.444-.797-.881-1.039-1.403a10 10 0 0 1-.275-.764c-.118-.32-.197-.645-.4-.92a8.8 8.8 0 0 0-1.274-1.527 6 6 0 0 0-1.315-.965c-.438-.163-.837-.522-1.197-.96a3.4 3.4 0 0 1-.438-.646c-.36.601-.955 1.129-1.87 1.449-.197.084-.439.162-.596-.281-.079-.163-.079-.286-.04-.36-.039 0-.078.04-.117.04-.242.04-.478.123-.602-.36-.117-.482.08-.521.32-.605.4-.079.68-.281.838-.562.196-.325.241-.724.163-1.207a2.2 2.2 0 0 0-.4-1.004c-.196-.28-.398-.438-.6-.483-.118 0-.32-.04-.478 0-.079.04-.202.079-.28.242-.119.202-.237.443-.636.202-.438-.203-.36-.399-.241-.64m-17.41 25.392a34 34 0 0 1-2.91-3.934c-1.08-1.566-1.91-3.014-2.27-3.856v-.118c-.157-1.246.28-1.645.955-2.212.079-.078.197-.196.32-.28.242-.242.438-.483.562-.764.477-.802.595-1.728.477-2.649-.157-.96-.595-1.886-1.235-2.531a3.8 3.8 0 0 0-.877-.719 3.3 3.3 0 0 0-.955-.36c-.118 0-.399-.083-.36.237.995.522 1.877 1.364 2.27 2.486.32.926.275 2.049-.28 3.334-.08.236-.158.444-.596.242-.478-.203-.36-.405-.281-.646.477-1.044.477-1.925.242-2.61-.276-.881-.995-1.527-1.793-1.925-.522-.28-1.039-.444-1.556-.483-.556-.078-.798.118-.916.64h.04c1.078.241 2.028.763 2.59 1.807.477.848.674 1.97.477 3.536-.04.236-.04.483-.556.399-.438-.04-.438-.28-.399-.522.202-1.325 0-2.29-.36-2.93-.398-.763-1.117-1.162-1.954-1.325-.517-.117-.995-.078-1.551-.039-.242.04-.36.803-.32 1.005.837.36 1.556.881 2.033 1.56.916 1.201 1.315 2.728 1.596 3.974.079.241.118.483-.36.6-.477.124-.517-.117-.556-.359-.275-1.167-.68-2.57-1.432-3.614-.478-.646-1.152-1.123-2.034-1.364-.281-.079-1.197.561-1.197.926 0 .202.04.404.084.606.118.64.236 1.285.478 1.886.36.965.837 1.768 1.433 2.447.517.606 1.118 1.005 1.674 1.207.438.118.438.803.04.92-.198.08-.321.163-.4.281-.118.118-.157.241-.118.28 0 .04.079.04.197.08.163.084.36.162.556.28.877.522.955.763 1.157 1.364.118.241.197.522.439.926.517 1.005 1.157 2.61 1.792 4.333.64 1.931 1.275 4.019 1.713 5.664.438-.404.759-.809 1-1.084.079-.084.118-.202.157-.28l.08-.079c0-1.527.28-2.694.836-3.738.478-.96 1.191-1.768 2.073-2.61m-2.19 7.078a.38.38 0 0 0-.197.241c-.4.483-.955 1.168-1.916 1.925.079 0 .118-.039.157-.039 1.433-.404 2.91-.6 3.983-.404.236.04.596.084.517.561-.078.483-.438.444-.68.404-.955-.157-2.27 0-3.544.365-1.276.404-2.472.96-3.27 1.69-.197.157-.478.398-.798.039-.32-.365-.04-.646.157-.77.601-.56 1.4-1.004 2.27-1.363a61 61 0 0 0-5.298-3.093c-.36-.202-.713-.365-1.236-.64-.32-.202-.635-.32-.915-.482-.877-.404-1.551-.724-2.433-1.69-.714-.561-1.034-1.605-1.354-2.688-.079-.444-.242-.882-.36-1.246-.196-.483-.398-.92-.719-1.246-.398-.404-.876-.438-1.393-.438-.758.236-.477.157-.837 1.005.68.039 1.393.24 1.95.679.477.365.758.887.837 1.324.039.202.123.6-.4.685-.437.118-.477-.28-.555-.522-.04-.202-.197-.483-.478-.724-.236-.202-.64-.36-1.118-.443a2.5 2.5 0 0 0-.758 0c-.602.325-.562.443-.562 1.487 1.595.404 2.197 1.246 2.753 1.965.28.364.994.965.556 1.408-.517.483-1.073-.482-1.315-.802-.522-.685-1.078-1.488-2.713-1.729-.759 0-.36 1.443-.32 1.527.359.241.398.443.837.64.398.202 1 .443 1.91 1.044.236.117.562.32.32.724-.281.404-.601.24-.837.117-.837-.56-1.393-.802-1.753-.965-.798.28-.68 1.168-.556 1.527.197.6.64 1.364 1.19 2.088.641.842 1.355 1.605 2.035 2.211q.597.481 1.196.483c.4 0 .837-.202 1.433-.522.438-.242.837-.477 1.196-.556 1.113-.241.995.522 1.08 1.246.162-.123.398-.28.595-.522.556-.437 1.073-.965 1.674-.92 1.314 0 3.584 1.762 4.578 2.531.557.438 1.118.881 1.95 1.364.876.522 1.792 1.005 2.63 1.325.836.32 1.634.482 2.392.522 1.753.118 3.427-.32 5.579-.926.157-.085.36-.118.562-.158.078-.039.32.04.438.079.399.365.955.803 1.556 1.128.596.28 1.236.522 1.871.483.837-.04 1.674-.724 2.191-1.605.36-.562.635-1.202.753-1.847.196-.881.196-1.364-.118-2.167a14 14 0 0 1-.635-1.644c-1.837-.881-3.191-3.334-3.747-5.585-.079 1.168 0 2.414.196 3.132.08.365-.275.724-.634.606-1.871-.684-2.748-1.409-3.107-2.29-.36.522-.798.724-1.118.887-.079.04-.158.118-.197.118a.45.45 0 0 1-.753-.157c-.241-.522-.36-1.044-.443-1.527-.4.68-.916 1.285-1.596 1.684-.197.123-.556.04-.674-.202a1.8 1.8 0 0 1-.242-.646 4.16 4.16 0 0 1-1.629 1.207.5.5 0 0 1-.163.118m15.281 3.003c1.118 2.89 3.152 7.628 4.905 11.686.713 1.768 1.432 3.373 2.033 4.816.118.241.197.443-.241.645-.438.163-.517-.045-.64-.281-.237-.6-.596-1.363-.995-2.29v.04c-.28.202-.64.443-.837.482-.242.04-.601.163-.68-.32-.079-.437.275-.561.517-.639a2.7 2.7 0 0 0 .596-.444c-.158-.483-.4-.965-.596-1.448-.32.404-.798.724-1.275 1.005a5.5 5.5 0 0 1-1.753.561c-.242.039-.596.202-.68-.32-.118-.443.236-.6.478-.645a5.7 5.7 0 0 0 1.51-.438c.4-.241 1.08-.724 1.276-1.168-1.034-2.492-2.152-5.102-3.107-7.392-.157.685-.477 1.364-.837 1.965-.719 1.128-1.792 1.925-2.943 2.049-.877.039-1.675-.242-2.394-.607a9.2 9.2 0 0 1-1.55-1.044c-.079.04-.197.04-.32.079-1.956.561-3.551 1.005-5.18 1.005 2.668 5.062 5.657 7.953 8.168 10.439 1.995 1.926 3.702 3.615 4.82 5.827h-.039c1.191 2.048 1.63 4.215 2.112 6.421 0 .078.04.157.118.522.478 2.531.995 5.018 1.95 7.184.916 2.127 2.27 4.013 4.624 5.422a29 29 0 0 0 3.263 1.807c1.074.522 2.192 1.005 3.506 1.409a8.8 8.8 0 0 1 2.068.966 6.7 6.7 0 0 1 1.634 1.566c1.08 1.487 1.08 2.935.956 7.027v.443c.719.118.758.242 1.393.118.241-.078.483-.163.758-.163.281.04.601.118.882.242.236.118.517.32.674.522.163.202.4.483.04.763-.36.32-.64.039-.798-.163a2 2 0 0 0-.32-.241 1.05 1.05 0 0 0-.478-.118c-.163 0-.36.045-.517.084-.955.242-1.157-.039-1.91-.123-.28 0-.595 0-.916.039-.955.118-3.146-.842-3.146-.842-1.078.444-1.713.881-2.073 1.286-.32.364-.438.679-.556.881 0 .039-.04.084-.04.163a.7.7 0 0 1-.117.241c0 .045.04.084.04.084.038.118.117.286.28.404a1 1 0 0 0 .197.163c.118-.163.196-.365.32-.561.32-.483.798-.842 1.315-1.123.837-.359 1.915-.438 3.106.039.236.085.556.242.4.685-.164.438-.518.32-.76.202-.915-.359-1.713-.32-2.348-.039-.36.202-.674.483-.915.803-.203.325-.36.679-.36 1.044-.04.359 0 .724.157 1.004.04.04.08.118.08.202.32-.039.595-.084.915-.084h.635c.157-.404.438-.724.876-1.004a3.16 3.16 0 0 1 1.674-.483c.36 0 .753.039 1.158.163.236.078.516.162.398.639-.118.444-.438.365-.674.281a3.1 3.1 0 0 0-.837-.118q-.716.058-1.196.359c-.242.163-.36.281-.439.483q.117.059.36.118c.32.118.719.163 1.034.163.196 0 .477 0 .713-.045.236-.039.478-.118.759-.202a14 14 0 0 0 1.112-.522c.28-.118.517-.281.719-.32.202-.084.517-.202.72.241.156.444-.197.601-.4.679-.118.045-.32.118-.556.287-.197.039-.36.162-.562.241.32.202.674.32 1.04.404.797.163 1.55.118 1.831-.118l.04-.039c.039-.039.123-.124.24-.202.557-.483 1.473-1.207 2.231-1.207h1.315c.197-.247.477-.483.719-.724.438-.404.916-.803.916-1.005 0-.039-.354-.241-.635-.364-.275-.158-.556-.281-.72-.438-.275-.281-.718-.444-1.275-.444-.477.04-1.072.242-1.674.679-.163.124-.517.405-.797 0-.281-.398.039-.679.275-.802.713-.561 1.472-.803 2.152-.842.32 0 .556.039.797.079v-.04a1.2 1.2 0 0 0-.28-.443 1.6 1.6 0 0 0-.838-.365c-.32-.039-.635 0-.994.045-.242 0-.478.039-.517-.438-.04-.483.197-.483.438-.528.4-.039.798-.078 1.236-.039.079.039.197.039.281.079-.079-.281-.157-.522-.236-.764a21 21 0 0 1-.64-2.447c-.079-.32-.118-.6-.203-.887-.039.202-.117.646-.595.567-.438-.123-.36-.522-.32-.763a6.9 6.9 0 0 0-.438-3.895c-.478-1.084-1.236-1.965-2.27-2.408-.202-.118-.556-.287-.36-.724.197-.444.517-.281.759-.202 1.275.606 2.19 1.644 2.747 2.929.202.483.36.927.438 1.449.04-.079.04-.158.04-.242.078-.645.202-1.285.28-1.807.079-.32.163-.561.203-.763.118-.242.196-.444.196-.764 0-.039-.196-.039-.438-.084a2.5 2.5 0 0 1-.837-.281c-1.197-.522-2.23-1.526-3.427-2.727-.236-.203-.438-.444-.713-.685-.242-.236-.517-.719-.916-1.403-.32-.685-.72-1.527-1.118-2.487a11 11 0 0 1-.68-2.329c-.118-.685-.118-1.325.04-1.886v-.039c.522-1.606.595-3.015.398-4.176-.196-1.207-.719-2.33-1.393-3.413-.517-.887-1.393-1.886-2.23-2.936-.478-.6-.995-1.201-1.512-1.885-1.112-1.443-1.87-2.728-2.393-4.014-.562-1.246-.876-2.447-1.118-3.693-.399-2.127-.36-4.496-.275-6.87 0-.724 0-1.442.04-2.167-.877-.084-1.675-.359-2.551-1.206-.158-.163-.36-.36-.517-.562h-.118c-.236 0-.438 0-.68-.039-1.674-.202-3.27-1.044-4.46-2.57q-.717-.844-1.197-2.05c.039.562.163 1.084.28 1.567.08.28-.117.6-.438.6h-.398zm12.152 3.491c.483.241 1.314.438 2.19.438.36 0 .76-.04 1.074-.163-.118-.123-.32-.241-.438-.404-1.315-.04-4.461-1.403-5.18-5.54.079.645.202 1.285.399 1.886.399 1.285 1.034 2.492 1.955 3.777m5.258-25.37c-.163-.522-.477-1.004-.921-1.448 0 .561 0 1.201-.079 1.847 0 .202-.039.443-.078.645.398-.28.797-.645 1.078-1.044m-30.87 15.497c.039-.117.117-.32.162-.443.04-.079.079-.202.158-.241.118-.404.275-.803.438-1.246.118-.404.32-.803.477-1.207-.915.803-1.59 1.605-2.033 2.492-.438.803-.68 1.644-.759 2.728.674-.404 1.113-1.084 1.55-2.088m33.186 34.502c.079.32.158.64.203.96.163.847.157 1.729 0 2.728.68.522 1.393.886 2.151 1.128.837.241 1.753.28 2.708.28 2.511-.039 4.579-1.004 6.096-2.57 1.59-1.605 2.545-3.935 2.629-6.545.039-1.605-.163-3.21-.562-4.816-.478-1.768-1.152-3.496-1.95-4.939-.876-1.65-1.791-3.093-2.668-4.496-2.073-3.295-3.983-6.387-5.062-10.805a26.6 26.6 0 0 1-.713-4.776c-.04-1.364.04-2.65.36-3.693.28-1.044.674-2.088 1.353-2.891.68-.881 1.596-1.482 2.95-1.566 1.432-.118 2.629.483 3.545 1.409 1.078 1.122 1.713 2.65 1.837 3.974.04.404-.203 1.044-.444 1.605-.118.404-.275.803-.275.96 0 .04-.079.163-.079.202-.242.561-.438 1.69-.517 2.97-.079 1.206-.04 2.53.118 3.49.079.404.157.803.281 1.207.197-1.409.674-2.728 1.034-3.295.123-.202.359-.64.758-.364.399.24.197.684.039.886-.32.522-.797 1.925-.915 3.374-.085.92.039 1.846.477 2.492.079.078.118.118.118.196.118.124.242.28.36.36.039.039.118.117.196.201a7 7 0 0 1-.196-.847c-.242-1.443-.04-3.093.196-4.097.04-.203.163-.685.641-.562.477.118.354.562.32.803-.241.926-.399 2.368-.197 3.693.158.842.478 1.645 1.034 2.088.045.04.084.04.124.084.078.04.118.04.157.079-.118-.28-.236-.522-.315-.803-.359-1.285-.477-2.851-.118-4.737.04-.241.118-.718.602-.64.477.118.398.561.359.803-.32 1.768-.241 3.132.118 4.26.32 1.123.955 1.965 1.714 2.65 0 0 0 .039.039.039-.163-1.044-.517-1.886-.832-2.65-.28-.6-.522-1.167-.64-1.723-.157-.685-.197-1.487-.197-2.29-.039-.763-.039-1.566-.196-2.206-.197-1.004-.556-2.127-.955-3.093-.36-.926-.798-1.689-1.113-2.048a1.1 1.1 0 0 1-.123-.32c-.04-3.093-.798-5.54-2.028-7.269-1.276-1.768-3.068-2.773-4.978-2.728-.556 0-1.118.04-1.674.203-.478.157-.955.359-1.433.64-.96.645-1.831 1.605-2.51 2.811a11.3 11.3 0 0 0-1.192 3.974c-.197 2.408-.04 4.58.399 6.668.399 2.128 1.152 4.176 2.112 6.264 1.034 2.29 2.23 4.418 3.388 6.466 2.545 4.496 4.82 8.554 4.579 12.41-.079 1.847-.798 3.211-1.832 4.216-1.19 1.122-2.786 1.644-4.382 1.644a9.1 9.1 0 0 1-3.786-.842c-.36-.163-.759-.365-1.079-.6m-17.163 7.381c-.04-.281-.118-.562-.197-.848-.477-.034-.837-.118-1.157-.275-.438-.241-.719-.601-.758-1.083-.079-.601.28-1.364.556-2.049.157-.359.32-.685.399-.921 0-.084-.04-.117-.04-.162-.32-1.482-.595-2.975-1.19-4.418-.439 0-.877.045-1.394.085-4.899.28-9.084.561-11.95 3.569-1.078 1.084-1.713 2.33-2.112 3.576-.36 1.324-.477 2.688-.36 4.013.04 1.044.237 2.049.439 3.093.236 1.291.758 2.009 1.63 3.092.162.163.28.32.359.404.118.202.32.444-.04.724-.438.281-.64.04-.758-.162-.32-.444-.674-.842-.994-1.246 0 .404.039.881.039 1.324 0 .764 0 1.611.04 2.414.039.718.039 1.526.078 2.284 0 .764.04 1.488 0 2.167v.28c0 .601.04 1.168-.36 1.729-.28.32-.6.646-.994.921-.32.202-.72.365-1.157.404-1.04.078-1.871-.404-2.708-.966-.753-.443-1.511-.92-2.348-.92-.557 0-1.113.202-1.59.438-.562.32-1 .684-1.315 1.122-.32.404-.478.842-.556 1.325-.04.123-.04.241-.04.404.197-.359.4-.724.675-.965a3.16 3.16 0 0 1 1.831-.882c.236-.039.517-.039.758 0 .237 0 .596.04.557.477-.04.483-.4.483-.635.444-.163 0-.36 0-.562.039-.438.079-.916.242-1.275.606-.36.36-.596.842-.674 1.561v-.04.803c.078.039.078.124.118.241.477-.202.915-.28 1.393-.202.241.04.477.118.719.242-.04-.601 0-1.207.241-1.768.315-.764 1.034-1.325 2.467-1.566.236-.04.6-.118.68.359.078.483-.281.567-.517.606-1.073.163-1.556.522-1.747 1.005-.163.404-.163 1.005-.163 1.566.078-.084.163-.163.32-.163a2 2 0 0 1 .438-.079l.118.04c.36.084.635.482.916.847.04.04.04.079.04.118.078 0 .201.079.28.202.28-.078.601-.202.955-.32.837-.365 1.792-.724 2.59-.802.242 0 .556-.045.595.437.04.522-.28.522-.516.562-.4.039-.877.163-1.394.325.197.079.438.163.759.202.719.079 1.753-.039 3.224-.684.36-.163 1-.118 1.596-.04.28.04.477.04.64.04.36 0 .72-.242 1.04-.607.36-.359.635-.797.635-1.161.078-1.325-.995-1.808-2.113-1.886-.118 0-.241 0-.399.078-.157.079-.36.281-.517.483-.196.196-.438.477-.797.157s-.124-.601.04-.803c.28-.28.555-.522.836-.684.32-.163.635-.242.916-.197a4.8 4.8 0 0 1 1.433.32c.078-1.207.477-2.166.83-3.132.321-.763.72-1.807.838-2.649a7.2 7.2 0 0 0-.36-3.053c-.039-.242-.157-.562.32-.685.439-.157.557.163.636.409.36 1.28.438 2.324.36 3.25 1.235-1.324 1.078-2.413.876-3.575-.08-.646-.158-1.246-.118-2.009.078-1.084.955-2.291 2.067-3.452.556-.522 1.118-1.044 1.713-1.488-1.275.281-2.55.399-3.545.281-1.275-.202-2.23-.724-2.55-1.886-.36-1.246.28-2.329 1.19-3.211.838-.802 1.956-1.442 2.787-1.605.236-.078.602-.163.714.281.079.482-.281.606-.517.64-.68.162-1.595.724-2.309 1.408-.674.601-1.19 1.325-.955 2.251.197.679.837 1.044 1.713 1.168 1.034.118 2.31-.045 3.585-.326 2.348-.522 4.702-1.448 5.696-1.846" clip-rule="evenodd"></path><path fill="#FDD800" fill-rule="evenodd" d="M43.893 148.134a6 6 0 0 0-.399-.118c-.236-.039-.516 0-.797.079.078.163.236.281.32.398.36.326.635.483.713.444.079-.045-.078-.039-.039-.124.04-.202.079-.443.202-.684m19.64-90.025a.496.496 0 0 1 .119-.802h.04c.24-.203.836-.64 1.634-.842a2.3 2.3 0 0 1 .719-.118c.197 0 .438.039.713.157a2.8 2.8 0 0 1 .759.443c.36.202.64.444.68.562.04.039.078.28.078.364-.078.438-.438.522-.955.601-.28.04-.674.084-1.033.28-1.55.803-1.871.4-2.433-.28-.079-.079-.163-.241-.32-.365M83.49 153.36c-.72-.163-1.118-.803-1.315-1.768h.438l1.034.118.32 1.324c-.078.365-.28.326-.477.326m-2.388-2.734-.078-1.161-.674-.562c-.355.601-.439 1.409-.197 2.447.163.163.36.483.556.444l.399-1.168zm-9.404-96.973c.241-.443.595-.685.955-.763.32-.04.64-.04.837 0 .438.084.876.404 1.197.842.32.398.556.926.6 1.442.119.764 0 1.37-.28 1.847a1.7 1.7 0 0 1-.32.443c.477-.32.758-.724.915-1.122.118-.404.079-.881 0-1.364-.157-.483-.36-.966-.674-1.364-.595-.803-1.433-1.409-2.152-1.409-.36.04-.68.28-.955.64-.314.404-.595.965-.876 1.527-.04.084-.275.286-.399.286-.68.04-1.393.118-1.994.241-.158 0-.36.04-.596.04-1.034.162-1.753.32-2.348.606-.517.28-.955.679-1.399 1.246 0 .04-.118.118-.118.163-.556.325-1.275.6-1.989.802-.916.28-1.792.444-2.27.444-.64 0-.876.039-.955.117 0 .085.04.36.08.685v.04c.038.56-.04 1.044-.158 1.487-.118.561-.242 1.083-.118 1.807.202.966.64 1.207.916 1.364.241.163.438.242.522.561.04.281.118.562.236.803a.3.3 0 0 0 .079-.196c.196-.365.354-.803.635-.966.6-.359 1.275-.359 1.949-.28.556.039 1.393.6 1.994 1.246.556.6.955 1.324.877 1.886-.118.64-.674 1.285-1.354 1.762-.635.443-1.433.763-2.034.606-.758-.123-1.393-1.605-1.753-2.166-.118.157-.196.398-.28.64 0 .039-.119.202-.158.24-.079.085-.241.164-.36.282-.359.28-.797.6-.797.718 0 .241.118.522.196.763.163.36.32.719.32 1.123a1 1 0 0 1-.039.157c-.045.163-.084.32-.084.522 0 .28 0 .561.118.763.079.202.197.36.399.404.04.04.163.04.242.04.68.078 1.033-.118 1.353-.28.32-.119.517-.242.877-.203.32 0 .477.163.68.404.078.079.196.202.32.32.556-.163 1.112-.28 1.713-.404.837-.196 1.674-.645 2.394-1.246.797-.68 1.471-1.527 1.91-2.408.36-.763.595-1.527.595-2.29.079-.881 0-1.684-.241-2.369-.04-.241-.158-.56.241-.684.478-.163.601.117.68.364.28.842.399 1.763.32 2.768a8.5 8.5 0 0 1-.719 2.649c-.517.965-1.275 1.964-2.152 2.688-.837.764-1.831 1.286-2.865 1.488-.595.123-1.196.28-1.713.443-.079.045-.197.084-.236.045-1.276.444-2.349 1.005-3.388 1.645-1.511 1.004-2.87 2.245-4.505 3.693q.065-.06.241 0c.438.163.32.438.236.685-.197.443-.36.88-.477 1.246-.281.763-.517 1.364-.759 1.925-.079.36-.118.64-.118.926.04.163.04.32.079.483.955-.842 1.432-2.447 1.831-3.693.079-.32.197-.64.32-.921a.46.46 0 0 1 .596-.32c.202.084.399.365.275.646-.078.28-.196.56-.275.926-.079.157-.118.32-.157.482a9 9 0 0 0-.079 1.123c0 .606.04 1.252.236 1.891.399-.24.916-.724 1.157-2.29 0-.24 0-.482.04-.724 0-.32.039-.64.039-.965 0-.236.242-.404.438-.404.242 0 .517.163.517.443 0 .646-.04 1.201-.079 1.69-.045 1.487.118 2.531 1.95 3.334a13.2 13.2 0 0 1-.079-2.852c.118-1.167.36-2.25.837-2.772.118-.163.4-.242.601-.163.197.078.236.32.236.522-.32 2.486 1.354 7.067 3.944 7.673a17 17 0 0 1-.32-3.256c0-1.364.118-2.772.438-3.98.04-.24.32-.398.562-.358.236.039.399.28.399.521-.079.607-.079 1.129-.079 1.684 0 2.492.674 4.378 1.753 5.709.994 1.285 2.393 2.043 3.786 2.206a13 13 0 0 1-1.275-2.813c-.595-2.003-.916-4.136-.837-5.86 0-.24 0-.6.478-.56.516 0 .516.364.477.605-.079 1.606.197 3.654.798 5.501.556 1.605 1.275 3.053 2.27 4.013.837.803 1.674.926 2.668.966-.758-1.123-1.275-2.212-1.59-3.334-.399-1.364-.556-2.812-.517-4.373.04-1.083.242-2.172.556-3.21.08-.202.197-.561.641-.404.478.162.36.482.28.684-.28.966-.482 1.965-.522 2.93v1.044c.04-.123.163-.163.4-.202.522-.04.522.202.556.444.32 3.934 2.91 5.298 4.1 5.46a12.2 12.2 0 0 1-.837-2.53c-.28-1.168-.438-2.37-.438-3.413 0-.842.079-1.69.158-2.447a9 9 0 0 1 .438-2.049c.079-.202.202-.645.64-.483.478.163.36.6.281.803-.197.483-.32 1.128-.399 1.807-.078.685-.163 1.488-.118 2.212.04-.404.118-.764.236-1.168.079-.398.197-.802.242-1.285.04-.28.118-.685.595-.645.478.078.4.522.36.763-.079.561-.157 1.005-.275 1.403-.236.926-.32 1.729-.124 2.689.157.56 1.079 1.807.477 2.166-.398.28-.595-.078-.719-.28a4.7 4.7 0 0 1-.64-1.527c.04.32.079.6.163.92.399.803.837 1.246 1.196 1.488.158.118.36.196.517.241-.36-1.207-.517-2.975-.477-4.776.04-1.808.36-3.694 1.034-5.142.123-.202.398-.438.6-.404.197.04.36.36.36.606 0 .36-.04.803-.118 1.364.32-.926.478-1.847.635-2.773.281-1.487.562-2.969.32-4.254-.045-.163-.045-.32.04-.444.196-.202.595-.084.955-.084a.8.8 0 0 0 .6-.241c-.954-.36-1.589-.92-1.993-1.605-.478-.724-.675-1.606-.72-2.453-.039-.522-.039-1-.118-1.521-.118.123-.28.241-.438.359-.438.404-.921.685-1.472.965-.399.197-.876-.28-.64-.684.04-.124.118-.281.196-.444-.078 0-.078.04-.123.084-.753.685-1.714.882-2.747.966-.36 0-.64-.365-.439-.724.08-.163.118-.32.242-.522-.798.926-1.87 1.723-3.107 2.166-.399.124-.758-.28-.595-.645.157-.399.32-.842.399-1.28-.72.926-1.714 1.645-2.714 2.01-.36.123-.713-.242-.595-.601.32-.965.517-1.847.517-2.773-.08-.926-.281-1.807-.916-2.812-.118-.202-.32-.483.078-.718.4-.287.602 0 .72.196.719 1.162 1.033 2.25 1.033 3.295.04.685-.04 1.364-.196 2.049a5.5 5.5 0 0 0 1.314-1.24c.556-.725.955-1.567.995-2.409 0-.202.241-.443.477-.443s.438.202.478.443c.039.803 0 1.645-.118 2.487-.04.365-.118.724-.242 1.083a7.5 7.5 0 0 0 1.792-1.527c.714-.88 1.118-1.807.955-2.447-.045-.241.118-.483.32-.522.236-.079.557.045.635.241.197.562.242 1.286.118 2.05-.078.521-.196 1.043-.438 1.565.556-.078.995-.28 1.393-.6.517-.483.916-1.41.956-3.015a9 9 0 0 0-.675-.6c-.438-.444-.798-.881-1.039-1.403a10 10 0 0 1-.275-.764c-.118-.32-.197-.645-.4-.92a8.8 8.8 0 0 0-1.274-1.527 6 6 0 0 0-1.315-.965c-.438-.163-.837-.522-1.197-.96a3.4 3.4 0 0 1-.438-.646c-.36.601-.955 1.129-1.87 1.449-.197.084-.439.162-.596-.281-.079-.163-.079-.286-.04-.36-.039 0-.078.04-.118.04-.241.04-.477.123-.6-.36-.119-.482.078-.521.32-.605.399-.079.68-.281.837-.562.196-.325.241-.724.163-1.207a2.2 2.2 0 0 0-.4-1.004c-.196-.28-.398-.438-.6-.483-.118 0-.32-.04-.478 0-.079.04-.202.079-.28.242-.119.202-.237.443-.636.202-.438-.203-.36-.399-.241-.64m-17.41 25.392a34 34 0 0 1-2.91-3.934c-1.08-1.566-1.91-3.014-2.27-3.856v-.118c-.157-1.246.28-1.645.955-2.212.079-.078.197-.196.32-.28.242-.242.438-.483.562-.764.477-.802.595-1.728.477-2.649-.157-.96-.595-1.886-1.236-2.531a3.8 3.8 0 0 0-.876-.719 3.3 3.3 0 0 0-.955-.36c-.118 0-.399-.083-.36.237.995.522 1.877 1.364 2.27 2.486.32.926.275 2.049-.28 3.334-.08.236-.158.444-.596.242-.478-.203-.36-.405-.281-.646.477-1.044.477-1.925.241-2.61-.275-.881-.994-1.527-1.792-1.925-.522-.28-1.04-.444-1.556-.483-.556-.078-.798.118-.916.64h.04c1.078.241 2.028.763 2.59 1.807.477.848.674 1.97.477 3.536-.04.236-.04.483-.556.399-.438-.04-.438-.28-.399-.522.202-1.325 0-2.29-.36-2.93-.398-.763-1.117-1.162-1.955-1.325-.517-.117-.994-.078-1.55-.039-.242.04-.36.803-.32 1.005.837.36 1.556.881 2.033 1.56.916 1.201 1.315 2.728 1.596 3.974.078.241.118.483-.36.6-.477.124-.517-.117-.556-.359-.275-1.167-.68-2.57-1.433-3.614-.477-.646-1.151-1.123-2.033-1.364-.281-.079-1.197.561-1.197.926 0 .202.04.404.084.606.118.64.236 1.285.478 1.886.36.965.837 1.768 1.433 2.447.516.606 1.118 1.005 1.674 1.207.438.118.438.803.039.92-.197.08-.32.163-.399.281-.118.118-.157.241-.118.28 0 .04.079.04.197.08.163.084.36.162.556.28.876.522.955.763 1.157 1.364.118.241.197.522.439.926.516 1.005 1.157 2.61 1.792 4.333.64 1.931 1.275 4.019 1.713 5.664.438-.404.759-.809 1-1.084.079-.084.118-.202.157-.28l.08-.079c0-1.527.28-2.694.836-3.738.478-.96 1.191-1.768 2.073-2.61m-2.19 7.078c.078-.04.117-.084.162-.118a4.16 4.16 0 0 0 1.63-1.207c.039.242.117.444.24.646.119.241.478.32.675.202.68-.404 1.197-1.005 1.596-1.684.078.477.202.999.443 1.526.118.32.517.399.753.158.045 0 .124-.079.197-.118.32-.163.758-.365 1.118-.887.36.887 1.236 1.605 3.107 2.29.36.118.713-.241.634-.606-.196-.719-.275-1.97-.196-3.132.556 2.25 1.91 4.698 3.747 5.585.157.482.36 1.044.635 1.644.32.803.32 1.285.118 2.167-.118.645-.4 1.285-.753 1.846-.522.887-1.354 1.566-2.191 1.606-.635.045-1.275-.197-1.87-.483-.596-.32-1.152-.763-1.557-1.128-.118-.04-.36-.118-.438-.079-.197.04-.4.079-.562.157-2.152.606-3.82 1.044-5.579.927a7.8 7.8 0 0 1-2.393-.523c-.837-.32-1.753-.802-2.63-1.324-.836-.483-1.392-.92-1.949-1.364-.994-.763-3.264-2.532-4.578-2.532-.601-.039-1.118.483-1.674.921-.197.241-.439.404-.596.522-.079-.724.04-1.487-1.079-1.246-.36.079-.758.32-1.196.556-.596.32-1.034.522-1.433.522q-.599-.002-1.196-.483c-.68-.6-1.394-1.37-2.034-2.212-.556-.724-.995-1.487-1.191-2.088-.118-.359-.242-1.246.556-1.526.354.163.916.404 1.753.965.236.124.562.286.837-.118.242-.404-.084-.606-.32-.724-.916-.6-1.517-.842-1.91-1.044-.439-.202-.478-.404-.837-.64-.04-.084-.439-1.526.32-1.526 1.635.241 2.19 1.044 2.713 1.728.236.32.798 1.286 1.315.803.438-.438-.275-1.044-.556-1.409-.557-.718-1.158-1.56-2.753-1.964 0-1.044-.04-1.162.562-1.488.28-.039.517-.039.758 0 .478.085.876.247 1.118.444.275.241.438.522.477.724.08.241.119.64.557.522.517-.084.438-.483.399-.685a2.2 2.2 0 0 0-.837-1.325c-.557-.437-1.276-.64-1.95-.679.36-.842.079-.763.837-1.004.517 0 .995.039 1.393.437.32.32.517.764.72 1.246.117.365.28.803.36 1.246.32 1.084.634 2.128 1.353 2.69.876.965 1.556 1.284 2.433 1.689.28.157.595.28.915.482.517.28.877.444 1.236.64 1.59.842 3.068 1.645 5.298 3.093-.876.359-1.668.802-2.27 1.364-.196.123-.477.404-.157.769.32.359.601.117.798-.04.798-.724 1.994-1.285 3.27-1.69 1.275-.364 2.59-.521 3.544-.364.242.04.596.084.68-.404.079-.477-.28-.522-.517-.561-1.078-.202-2.55 0-3.983.404-.04 0-.078.04-.157.04.955-.764 1.511-1.449 1.916-1.926a.42.42 0 0 1 .196-.241m15.225 3.025c1.118 2.89 3.152 7.628 4.904 11.686.714 1.768 1.433 3.373 2.034 4.816.118.241.197.443-.241.645-.439.163-.517-.045-.64-.281-.237-.6-.596-1.363-.995-2.29v.04c-.281.202-.64.443-.837.482-.242.04-.601.163-.68-.32-.079-.437.275-.561.517-.639.241-.124.477-.326.595-.444-.157-.483-.398-.965-.595-1.448-.32.404-.798.724-1.275 1.005a5.5 5.5 0 0 1-1.753.561c-.242.039-.596.202-.68-.32-.118-.443.236-.6.478-.645a5.7 5.7 0 0 0 1.51-.438c.4-.241 1.08-.724 1.276-1.168-1.034-2.492-2.152-5.102-3.107-7.392-.157.685-.477 1.364-.837 1.965-.719 1.128-1.792 1.925-2.944 2.049-.876.039-1.674-.242-2.393-.607a9.2 9.2 0 0 1-1.55-1.044c-.08.04-.197.04-.32.079-1.956.561-3.551 1.005-5.18 1.005 2.668 5.062 5.657 7.953 8.168 10.439 1.995 1.926 3.702 3.615 4.82 5.827h-.039c1.191 2.048 1.63 4.215 2.112 6.421 0 .078.04.157.118.522.478 2.531.995 5.018 1.95 7.184.916 2.127 2.27 4.013 4.623 5.422a29 29 0 0 0 3.264 1.807c1.074.522 2.192 1.005 3.506 1.409a8.8 8.8 0 0 1 2.068.966 6.7 6.7 0 0 1 1.634 1.566c1.079 1.487 1.079 2.935.955 7.027v.443c.72.118.759.242 1.394.118.241-.078.483-.163.758-.163.281.04.601.118.882.242.236.118.517.32.674.522.163.202.4.483.04.763-.36.32-.64.039-.798-.163a2 2 0 0 0-.32-.241 1.05 1.05 0 0 0-.478-.118c-.163 0-.36.045-.517.084-.955.242-1.157-.039-1.91-.123-.28 0-.595 0-.916.039-.955.118-3.146-.842-3.146-.842-1.078.444-1.713.881-2.073 1.286-.32.364-.438.679-.556.881 0 .039-.04.084-.04.163a.7.7 0 0 1-.117.241c0 .045.04.084.04.084.038.118.117.286.28.404a1 1 0 0 0 .197.163c.118-.163.196-.365.32-.561.32-.483.798-.842 1.314-1.123.838-.359 1.916-.438 3.107.039.236.085.556.242.4.685-.164.438-.518.32-.76.202-.915-.359-1.713-.32-2.348-.039-.36.202-.674.483-.915.803-.203.325-.36.679-.36 1.044-.04.359 0 .724.157 1.004.04.04.079.118.079.202.32-.039.596-.084.916-.084h.635c.157-.404.438-.724.876-1.004a3.16 3.16 0 0 1 1.674-.483c.36 0 .753.039 1.157.163.236.078.517.162.4.639-.119.444-.439.365-.675.281a3.1 3.1 0 0 0-.837-.118q-.716.057-1.197.359c-.241.163-.36.281-.438.483q.117.059.36.118c.32.118.719.163 1.034.163.196 0 .477 0 .713-.045.236-.039.478-.118.758-.202a14 14 0 0 0 1.113-.522c.28-.118.517-.281.719-.32.202-.084.517-.202.719.241.157.444-.197.601-.399.679-.118.045-.32.118-.556.287-.197.039-.36.162-.562.241.32.202.674.32 1.04.404.797.163 1.55.118 1.83-.118l.04-.039c.04-.039.124-.124.242-.202.556-.483 1.472-1.207 2.23-1.207h1.315c.196-.247.477-.483.719-.724.438-.404.916-.803.916-1.005 0-.039-.354-.241-.635-.364-.275-.158-.556-.281-.72-.438-.275-.281-.718-.444-1.275-.444-.477.04-1.073.242-1.674.679-.163.124-.517.405-.797 0-.281-.398.039-.679.275-.802.713-.561 1.472-.803 2.151-.842.32 0 .557.039.798.078v-.039a1.2 1.2 0 0 0-.28-.443 1.6 1.6 0 0 0-.838-.365c-.32-.039-.635 0-.994.045-.242 0-.478.039-.517-.438-.04-.483.197-.483.438-.528.4-.039.798-.078 1.236-.039.079.039.197.039.281.079-.079-.281-.157-.522-.236-.764a21 21 0 0 1-.64-2.447c-.079-.32-.118-.6-.203-.887-.039.202-.118.646-.595.567-.438-.123-.36-.522-.32-.763a6.9 6.9 0 0 0-.439-3.895c-.477-1.084-1.235-1.965-2.27-2.408-.201-.118-.555-.287-.359-.724.197-.444.517-.281.759-.202 1.275.606 2.19 1.644 2.747 2.929.202.483.36.927.438 1.449.04-.079.04-.158.04-.242.078-.645.202-1.285.28-1.807.079-.32.163-.561.203-.763.117-.242.196-.444.196-.764 0-.039-.197-.039-.438-.084a2.5 2.5 0 0 1-.837-.281c-1.197-.522-2.23-1.526-3.427-2.727-.236-.203-.438-.444-.714-.685-.241-.236-.516-.719-.915-1.403-.32-.685-.72-1.527-1.118-2.487a11 11 0 0 1-.68-2.329c-.118-.685-.118-1.325.04-1.886v-.039c.522-1.606.595-3.015.398-4.176-.197-1.207-.719-2.33-1.393-3.413-.517-.887-1.393-1.886-2.23-2.936-.478-.6-.995-1.201-1.512-1.885-1.112-1.443-1.87-2.728-2.393-4.014-.562-1.246-.876-2.447-1.118-3.693-.399-2.127-.36-4.496-.275-6.87 0-.724 0-1.442.04-2.167-.877-.084-1.675-.359-2.552-1.206-.157-.163-.359-.36-.516-.562h-.118c-.236 0-.439 0-.68-.039-1.674-.202-3.27-1.044-4.46-2.57q-.717-.844-1.197-2.05c.039.562.162 1.084.28 1.567.08.28-.118.6-.438.6h-.399zm12.152 3.491c-.916-1.285-1.556-2.492-1.955-3.777a10 10 0 0 1-.4-1.886c.72 4.136 3.866 5.5 5.18 5.54.119.162.32.28.439.404-.32.123-.72.162-1.073.162-.877 0-1.714-.202-2.191-.437m5.258-25.382c-.28.399-.674.764-1.078 1.044a3.5 3.5 0 0 0 .078-.645c.079-.646.079-1.285.079-1.847.438.444.758.926.921 1.448m-30.87 15.497c-.439 1.005-.877 1.684-1.551 2.088.078-1.083.32-1.93.758-2.727.438-.887 1.118-1.69 2.034-2.493-.157.405-.36.803-.478 1.207-.162.438-.32.842-.438 1.246-.078.04-.118.163-.157.242-.045.118-.118.32-.163.443m33.174 34.491c.32.241.72.443 1.079.601a9.1 9.1 0 0 0 3.786.841c1.59 0 3.186-.521 4.382-1.644 1.04-1.005 1.753-2.369 1.832-4.215.236-3.856-2.034-7.914-4.579-12.41-1.157-2.049-2.354-4.176-3.387-6.466-.961-2.088-1.714-4.137-2.113-6.264-.438-2.088-.595-4.26-.399-6.668a11.3 11.3 0 0 1 1.191-3.974c.68-1.207 1.55-2.167 2.512-2.812.477-.28.955-.483 1.432-.64.556-.163 1.112-.202 1.674-.202 1.91-.04 3.703.965 4.978 2.728 1.236 1.728 1.994 4.176 2.028 7.268 0 .04.084.28.124.32.32.365.758 1.123 1.112 2.049.399.96.758 2.082.955 3.093.157.64.157 1.448.197 2.205 0 .803.039 1.606.196 2.29.118.562.36 1.123.641 1.724.314.763.674 1.605.831 2.649-.039 0-.039-.04-.039-.04-.759-.684-1.393-1.526-1.714-2.649-.359-1.128-.438-2.492-.118-4.26.04-.241.118-.679-.359-.802-.478-.079-.562.398-.601.64-.36 1.885-.242 3.457.118 4.737.078.28.196.522.314.802-.039-.039-.078-.039-.157-.078-.039-.045-.079-.045-.124-.085-.556-.443-.876-1.245-1.033-2.087-.203-1.325-.04-2.768.196-3.694.04-.241.158-.684-.32-.802-.477-.118-.601.359-.64.56-.236 1.006-.439 2.65-.197 4.098.039.281.118.562.197.848-.079-.084-.158-.163-.197-.202-.118-.079-.242-.242-.36-.36 0-.078-.039-.123-.118-.196-.438-.64-.561-1.566-.477-2.492.118-1.448.595-2.851.916-3.373.157-.202.359-.646-.04-.887-.399-.28-.635.163-.758.365-.36.561-.832 1.886-1.034 3.294a13 13 0 0 1-.28-1.206c-.164-.96-.203-2.29-.119-3.491.079-1.286.276-2.408.517-2.97 0-.039.079-.162.079-.202 0-.162.163-.561.275-.96.242-.567.483-1.206.444-1.605-.118-1.325-.758-2.851-1.837-3.974-.916-.92-2.112-1.526-3.545-1.409-1.354.085-2.27.68-2.95 1.566-.674.803-1.073 1.847-1.353 2.891-.32 1.044-.4 2.33-.36 3.693a26.5 26.5 0 0 0 .713 4.777c1.08 4.417 2.99 7.51 5.062 10.805.877 1.403 1.792 2.851 2.669 4.495.797 1.443 1.477 3.172 1.949 4.94.399 1.605.601 3.21.562 4.816-.079 2.61-1.034 4.939-2.63 6.544-1.516 1.566-3.584 2.532-6.095 2.571-.955 0-1.87-.039-2.708-.281a6.8 6.8 0 0 1-2.151-1.128c.157-1.005.163-1.886 0-2.728a7 7 0 0 0-.203-.96m-17.095 7.393c-.995.398-3.348 1.324-5.697 1.846-1.275.281-2.55.444-3.584.326-.876-.124-1.517-.489-1.713-1.168-.236-.926.28-1.644.955-2.251.719-.679 1.634-1.246 2.309-1.408.236-.04.595-.158.516-.64-.117-.438-.477-.359-.713-.281-.837.163-1.955.803-2.787 1.605-.915.882-1.556 1.965-1.19 3.211.32 1.167 1.275 1.684 2.55 1.886 1 .123 2.27 0 3.545-.281-.596.444-1.157.96-1.714 1.488-1.117 1.161-1.988 2.368-2.067 3.452-.04.763.04 1.363.118 2.009.202 1.162.36 2.251-.876 3.575.078-.92 0-1.97-.36-3.25-.079-.241-.197-.566-.635-.409-.477.123-.36.443-.32.684a7.2 7.2 0 0 1 .36 3.054c-.118.842-.517 1.886-.837 2.649-.355.966-.753 1.925-.832 3.132a4.5 4.5 0 0 0-1.433-.32c-.28-.039-.6.039-.915.197-.276.162-.556.404-.837.684-.163.202-.4.483-.04.803.354.32.596.039.798-.157.157-.202.36-.404.517-.483.163-.078.28-.078.399-.078 1.118.078 2.19.566 2.112 1.886 0 .364-.28.802-.635 1.161-.32.365-.68.607-1.039.607-.157 0-.36 0-.64-.04-.596-.084-1.236-.123-1.596.04-1.472.645-2.506.763-3.225.684a2.8 2.8 0 0 1-.758-.202c.517-.163.994-.286 1.393-.325.236-.04.556-.04.517-.562-.04-.482-.36-.437-.596-.437-.797.078-1.752.437-2.59.802-.359.118-.674.236-.955.32-.078-.123-.196-.202-.28-.202 0-.039 0-.084-.04-.118-.28-.365-.556-.763-.915-.847l-.118-.04c-.085 0-.281.04-.439.079-.157 0-.241.079-.32.163 0-.562 0-1.168.163-1.566.197-.483.674-.842 1.747-1.005.242-.039.601-.123.517-.606-.079-.477-.438-.399-.68-.359-1.432.241-2.151.802-2.466 1.566-.242.561-.28 1.167-.242 1.768a2.6 2.6 0 0 0-.719-.242c-.477-.078-.915 0-1.393.202-.04-.117-.04-.202-.118-.241v-.803.04c.079-.719.32-1.201.674-1.561.36-.364.837-.527 1.276-.606.196-.039.398-.039.561-.039.236.039.596.039.635-.444.04-.443-.32-.477-.556-.477a2.5 2.5 0 0 0-.758 0c-.64.079-1.315.36-1.832.882-.28.241-.477.606-.674.965 0-.163 0-.281.04-.404.078-.483.235-.921.556-1.325.32-.443.758-.802 1.314-1.122.478-.242 1.034-.438 1.59-.438.837 0 1.596.477 2.348.92.837.562 1.674 1.044 2.708.966a2.6 2.6 0 0 0 1.157-.404c.4-.281.714-.601.995-.921.399-.561.36-1.122.36-1.729v-.28c.039-.679 0-1.403 0-2.167-.04-.758-.04-1.566-.08-2.284-.039-.803-.039-1.65-.039-2.414 0-.438-.039-.92-.039-1.324.32.404.68.802.995 1.246.117.202.32.443.758.162.354-.28.157-.522.04-.724-.08-.078-.203-.241-.36-.404-.877-1.083-1.394-1.807-1.63-3.092-.202-1.044-.398-2.049-.438-3.093-.118-1.325 0-2.689.36-4.013.399-1.246 1.034-2.492 2.112-3.576 2.865-3.014 7.05-3.294 11.95-3.569.517-.04.955-.085 1.393-.085.595 1.443.876 2.936 1.19 4.418 0 .045.04.078.04.162-.078.242-.241.562-.399.921-.28.685-.64 1.448-.556 2.049.04.482.32.842.759 1.083.32.157.674.241 1.157.275.079.286.157.567.197.848" clip-rule="evenodd"></path><path fill="#000" fill-rule="evenodd" d="M50.225 92.6c.994.08 2.27.163 3.78.163 1.557-.039 3.389-.162 5.462-.6.241-.079.483-.118.556.36.078.482-.118.521-.36.56a25.5 25.5 0 0 1-5.618.64c-1.595.04-2.91-.078-3.904-.162-.242 0-.478-.04-.439-.522.04-.483.281-.483.517-.444" clip-rule="evenodd"></path><path fill="#FDD800" fill-rule="evenodd" d="M46.399 148.74c-.157-.241-.32-.398-.36-.482-.078 0-.163 0-.236.039-.118 0-.28.045-.398.045.039.157.117.359.196.477.118.118.202.241.32.286z" clip-rule="evenodd"></path><path fill="#000" fill-rule="evenodd" d="M63.534 58.104a.496.496 0 0 1 .118-.802h.04c.24-.203.836-.64 1.634-.842a2.3 2.3 0 0 1 .72-.118c.196 0 .437.039.713.157.28.118.516.241.758.443.36.202.64.444.68.562.04.039.078.286.078.364-.078.438-.432.522-.955.601-.28.04-.674.079-1.033.28-1.55.803-1.871.405-2.433-.28-.079-.079-.163-.241-.32-.365m1-.28.04.044c.24.281.359.483 1.235 0 .32-.162.635-.24.916-.286a1.5 1.5 0 0 0-.36-.202c-.157-.04-.28-.084-.36-.084-.162 0-.28.045-.477.084-.36.079-.713.28-.994.438" clip-rule="evenodd"></path><path fill="#000101" fill-rule="evenodd" d="M65.326 60.237a6.15 6.15 0 0 1 2.989 3.693 6.2 6.2 0 0 1 .157 3.054c-.236 1.004-.713 1.97-1.472 2.688-.955 1.005-2.348 1.645-4.18 1.645-.241 0-.477 0-.477-.522 0-.438.241-.438.477-.438 1.55-.04 2.708-.561 3.506-1.364.595-.6.994-1.37 1.19-2.206a5.7 5.7 0 0 0-.117-2.57c-.36-1.246-1.191-2.408-2.511-3.093-.197-.079-.439-.242-.197-.646.197-.437.438-.32.635-.24" clip-rule="evenodd"></path><path fill="#000" fill-rule="evenodd" d="M72.214 73.366c-.04.679-.118 1.605.123 2.53.118.607.36 1.13.759 1.606 0-.64.039-1.246.118-1.846.118-1.005.399-1.926.719-2.728.078-.202.163-.438.635-.242.443.202.36.404.28.64a8.6 8.6 0 0 0-.674 2.492c-.118.803-.118 1.73-.039 2.728.04.404-.399.685-.714.483-1.151-.685-1.747-1.768-2.028-2.89-.241-1.045-.196-2.167-.118-2.891.04-.242.08-.483.557-.444.477.084.438.32.399.561M77.433 72.002c-.04.241-.079.482-.079.763-.079 1.044.079 2.25.596 3.21.36.764.921 1.364 1.713 1.73-.241-.562-.32-1.202-.32-1.847-.04-1.246.32-2.532.798-3.413.118-.241.241-.443.674-.196.399.24.28.437.197.64-.439.802-.714 1.885-.714 2.969 0 .802.197 1.644.713 2.25.118.163.197.365.118.522-.236.404-.797.281-1.112.203-1.399-.287-2.354-1.247-2.95-2.408-.595-1.168-.797-2.532-.673-3.733 0-.28.039-.561.112-.887.04-.241.084-.438.562-.359.477.079.438.32.36.561M69.865 99.387c-.236.404-.674.842-1.118 1.206-.438.32-.915.562-1.393.64-.236 0-.556.04-.635-.443s.281-.522.517-.561c.275 0 .635-.163.916-.404.399-.281.719-.646.876-.921.124-.202.32-.561.759-.32.398.28.196.6.078.803M69.191 97.462c-.36.6-.876 1.083-1.433 1.448-.556.404-1.196.6-1.752.6-.242 0-.562.04-.562-.443 0-.522.32-.522.562-.522.399 0 .837-.163 1.236-.444.438-.28.837-.684 1.112-1.122.163-.242.32-.522.758-.28.4.24.197.56.08.763" clip-rule="evenodd"></path><path fill="#FDD800" fill-rule="evenodd" d="m64.534 57.824.04.044c.24.281.359.483 1.235 0 .32-.162.635-.24.916-.286a1.5 1.5 0 0 0-.36-.202c-.157-.04-.28-.084-.36-.084-.162 0-.28.045-.477.084-.36.079-.713.28-.994.438" clip-rule="evenodd" data-source="https://football-logos.cc"></path><!-- source: https://football-logos.cc --></svg>