<svg xmlns="http://www.w3.org/2000/svg" viewBox="885.91 205.28 791.24 937.53"><metadata xmlns:fl="https://football-logos.cc/brazil/ypiranga">dl1_3fcb6db50ee6a8c0a95dbd3652e7b271e4508d60ea50bd5decaedccf35239800</metadata><!-- Source: https://football-logos.cc --><defs data-source="https://football-logos.cc"><clipPath id="a" clipPathUnits="userSpaceOnUse"><path d="M-1243.638 153.957h1920v-1080h-1920Z"></path></clipPath><clipPath id="b" clipPathUnits="userSpaceOnUse"><path d="M-1232.527 190.958h1920v-1080h-1920Z"></path></clipPath><clipPath id="c" clipPathUnits="userSpaceOnUse"><path d="M-841.028 379.727h1920v-1080h-1920Z"></path></clipPath><clipPath id="d" clipPathUnits="userSpaceOnUse"><path d="M-1001.002 379.727h1920v-1080h-1920Z"></path></clipPath><clipPath id="e" clipPathUnits="userSpaceOnUse"><path d="M-685.06 379.727h1920v-1080h-1920Z"></path></clipPath><clipPath id="f" clipPathUnits="userSpaceOnUse"><path d="M-1160.976 379.727h1920v-1080h-1920Z"></path></clipPath><clipPath id="g" clipPathUnits="userSpaceOnUse"><path d="M-831.15 342.229h1920v-1080h-1920Z"></path></clipPath><clipPath id="h" clipPathUnits="userSpaceOnUse"><path d="M-951.43 342.368h1920v-1080h-1920Z"></path></clipPath><clipPath id="i" clipPathUnits="userSpaceOnUse"><path d="M-1107.359 342.275h1920v-1080h-1920Z"></path></clipPath></defs><path d="M0 0c-145.043-113.077-282.489 0-282.489 0s-137.446-113.077-282.488 0c0 0-43.835-206.736 22.396-405.158 79.987-239.632 260.092-297.991 260.092-297.991s180.106 58.359 260.093 297.991C43.835-206.736 0 0 0 0" clip-path="url(#a)" style="fill:#2e9d45;fill-opacity:1;fill-rule:nonzero;stroke:none" transform="matrix(1.33333 0 0 -1.33333 1658.184 205.277)"></path><path d="M0 0c-145.754-89.941-270.402 14.22-270.402 14.22l-.488-.913-.488.913S-396.026-89.941-541.78 0c0 0-7.11-56.168-5.688-150.284H5.688C7.11-56.168 0 0 0 0" clip-path="url(#b)" style="fill:#fff;fill-opacity:1;fill-rule:nonzero;stroke:none" transform="matrix(1.33333 0 0 -1.33333 1643.37 254.611)"></path><path d="M0 0v-370.906c29.58-29.883 57.974-50.608 79.725-64.165V0Z" clip-path="url(#c)" style="fill:#f0ef25;fill-opacity:1;fill-rule:nonzero;stroke:none" transform="matrix(1.33333 0 0 -1.33333 1121.371 506.303)"></path><path d="M0 0v-436.13c21.549 13.275 49.983 33.765 79.725 63.505V0Z" clip-path="url(#d)" style="fill:#f0ef25;fill-opacity:1;fill-rule:nonzero;stroke:none" transform="matrix(1.33333 0 0 -1.33333 1334.67 506.303)"></path><path d="M0 0c8.912-111.69 38.758-197.959 75.721-263.857V0Z" clip-path="url(#e)" style="fill:#f0ef25;fill-opacity:1;fill-rule:nonzero;stroke:none" transform="matrix(1.33333 0 0 -1.33333 913.412 506.303)" data-source="https://football-logos.cc"></path><path d="M0 0v-266.88C37.749-200.605 68.379-113.405 77.428 0Z" clip-path="url(#f)" style="fill:#f0ef25;fill-opacity:1;fill-rule:nonzero;stroke:none" transform="matrix(1.33333 0 0 -1.33333 1547.967 506.303)"></path><path d="M0 0h-24.232v36.513c0 .832-.111 1.563-.652 2.43l-35.458 63.016h27.56l.388-.76c6.59-12.932 15.786-31.264 21.303-42.875 5.172 11.666 15.448 31.517 21.419 42.89l.392.745h25.699L.581 39.355c-.056-.13-.115-.254-.173-.38-.219-.461-.408-.86-.408-2.173Z" clip-path="url(#g)" style="fill:#2e9d45;fill-opacity:1;fill-rule:nonzero;stroke:none" transform="matrix(1.33333 0 0 -1.33333 1108.2 456.305)"></path><path d="M0 0h-23.801v101.959H48.22V81.614H0V60.073h40.739V39.727H0Z" clip-path="url(#h)" style="fill:#2e9d45;fill-opacity:1;fill-rule:nonzero;stroke:none" transform="matrix(1.33333 0 0 -1.33333 1268.574 456.49)"></path><path d="M0 0c-30.393 0-49.274 19.359-49.274 50.522 0 25.58 15.547 51.39 50.282 51.39 28.032 0 40.748-18.908 43.119-35.1l.234-1.594H20.245l-.284 1.02c-2.714 9.771-9.15 14.521-19.673 14.521-19.649 0-23.773-16.051-23.773-29.517 0-11.391 3.162-30.501 24.349-30.501 12.347 0 16.739 9.346 18.968 16.376l.307.971h24.324l-.351-1.678C40.429 18.808 26.906 0 0 0" clip-path="url(#i)" style="fill:#2e9d45;fill-opacity:1;fill-rule:nonzero;stroke:none" transform="matrix(1.33333 0 0 -1.33333 1476.478 456.367)" data-source="https://football-logos.cc"></path><!-- source: https://football-logos.cc --></svg>