<svg xmlns="http://www.w3.org/2000/svg" xml:space="preserve" viewBox="20.1 4.68 217.5 249.45"><metadata xmlns:fl="https://football-logos.cc/brazil/ponte-preta">dl1_5d7284ac9fc6d37f6956f5c672525225103e8f1b7c8bbbfc11b03da798e42975</metadata><!-- Source: https://football-logos.cc --><path d="M1781.92 749.773c-2.15 145.907-50.4 254.867-97.07 360.247-33.17 79.75-47.29 135.66-51.96 205.88 3.67 84.51 30.19 151.15 71.79 231.2l35.18 67.66-301.44 290.12-5.4-3.25-61.59-37.03c-115.62-69.52-259.31-109.22-404.602-111.8-151.969-2.7-292.633 34.27-406.769 106.9l-67.352 42.85-301.402-287.2 34.906-67.87c29.684-57.71 50.43-109.47 65.285-162.84 3.348-22.87 4.988-44.16 4.988-65.05 0-79.39-24.183-147.68-50.32-209.66-31.578-71.47-70.949-160.578-89.773-256.739l-.758-3.867-.457-3.922a657 657 0 0 1-4.414-75.882c0-107.059 26.144-209.817 75.613-297.168l3.426-6.047 4.211-5.524c37.691-49.441 79.125-88.551 126.664-119.57l2.379-1.551 2.453-1.414c79.836-45.953 163.367-76.996 244.148-107.019 106.657-39.629 207.371-77.055 289.227-144.52l63.922-52.691 64.685 51.75c52.76 42.207 105.97 73.328 172.55 100.91 36.02 14.746 73.04 28.16 112.23 42.359 83.59 30.301 169.99 61.621 252.97 109.043l3.51 1.996 3.36 2.301c163.28 111.332 197.15 256.602 209.43 397.004l.46 5.187z" style="fill:#231f20;fill-opacity:1;fill-rule:evenodd;stroke:none" transform="matrix(.13333 0 0 -.13333 0 258.667)" data-source="https://football-logos.cc"></path><path d="M1398.56 1819.48c-123.42-74.21-276.41-116.59-430.798-119.33-162.332-2.88-313.086 36.93-435.973 115.13l-32.59 20.73-243.054-231.61 16.886-32.83c31.989-62.19 54.278-118.21 70.11-176.02 3.996-26.25 5.906-51.21 5.906-75.21 0-82.41-21.918-153.95-54.43-231.02-30.746-69.6-68.91-156.093-86.554-246.246l-.368-1.867-.218-1.898a602 602 0 0 1-4.071-69.864c0-97.187 23.672-191.484 68.785-271.152l1.657-2.922 2.043-2.672c34.445-45.195 70.527-79.312 113.558-107.394l1.156-.754 1.192-.688c76.039-43.769 157.508-74.043 236.297-103.316 110.867-41.195 215.582-80.113 304.273-153.219l30.934-25.488 31.301 25.043c56.788 45.433 113.938 78.883 185.288 108.437 37.18 15.223 76.45 29.453 114.44 43.219 81.47 29.535 165.73 60.07 244.79 105.246l1.7.973 1.61 1.105c137.09 93.477 173.77 210.766 186.66 358.106l.22 2.508-.04 2.523c-1.98 134.871-48.1 239.289-92.8 340.22-36.17 86.89-51.52 148.61-56.37 226.32 3.62 95.03 32.47 168.48 77.86 255.84l17.02 32.74-244 234.85z" style="fill:#fff;fill-opacity:1;fill-rule:evenodd;stroke:none" transform="matrix(.13333 0 0 -.13333 0 258.667)"></path><path d="M1693.08 748.461c-1.76 118.91-36.78 206.602-90.02 326.809-37.68 90.47-54.33 157.93-59.24 240.06 3.59 102.24 35.39 183 82.02 272.74l4.54 8.73-204.52 196.85-8.65-5.2c-128.77-77.43-288.16-121.64-448.804-124.49-169.457-3.01-327.156 38.75-456.051 120.77l-8.687 5.54-202.949-193.39 4.504-8.76c33.543-65.21 56.875-124.05 73.418-185.07 4.55-29.2 6.679-56.82 6.679-83.33 0-87.73-23.129-163.39-57.429-244.66-29.977-67.85-67.387-152.529-84.305-238.939l-.098-.5-.058-.504a568 568 0 0 1-3.832-65.75c0-90.941 22.054-179 64.093-253.23l.442-.785.547-.711c31.863-41.801 65.086-73.266 104.55-99.02l.309-.199.32-.188c73.414-42.257 153.446-72 230.84-100.754 108.801-40.425 221.297-82.238 314.692-159.214l8.25-6.797 8.343 6.679c59.576 47.653 119.416 82.692 194.056 113.618 38 15.55 77.62 29.918 115.95 43.808 80.05 29.012 162.81 59.004 239.16 102.641l.46.258.43.297c125.33 85.464 159 194.273 170.99 331.351l.06.668zM1563.3 1517.37l-77.12-33.13v214.81c47.29-45.51 104.3-100.38 111.81-107.61-12.83-25.06-24.45-49.54-34.69-74.07m-899.851 166.36c61.301-20.91 126.227-34.89 193.688-41.6v-428.1l-193.688-83.2zm408.701-38.7c68.4 8.56 135.48 24.3 199.04 46.57v-299.71l-199.04-85.5zm-720.091-580.41c35.64 84.45 59.644 163.11 59.644 254.67 0 28.11-2.262 57.44-7.148 88.53l-.114.71-.183.68c-16.293 60.32-39.074 118.47-71.203 182.12 7.773 7.4 67.785 64.59 115.379 109.94v-662.81l-131.786-56.601c11.832 29.371 24.145 57.261 35.411 82.761m-82.524-233.057c7.731 39.292 19.981 78.48 33.836 115.945L1549.96 1482.98c-18.66-52.18-30.4-105.94-32.49-167.37l-.02-.62.04-.61c4.07-69.09 16.55-125.29 34.83-179.65l-.25.59L296.559 594.203c-20.161 54.504-30.637 114.074-30.637 175.106 0 20.632 1.203 41.429 3.613 62.254m587.602-580.282c-62.672 33.375-128.66 58.617-193.688 82.828v389.555l193.688 83.477zM326.223 529.836c-7.262 12.875-13.879 26.215-19.868 39.918l142.079 61.234v-206.91c-8.457 4.457-16.84 9.039-25.114 13.797-36.492 23.863-67.375 53.121-97.097 91.961M1156 293.102c-29.97-12.414-57.61-25.52-83.85-39.774v646.481l199.04 85.785v-648.93c-38.01-13.785-77.24-28.023-115.19-43.562m351.61 144.707c-7.08-4.032-14.23-7.922-21.43-11.731v652.172l74.72 32.2c5.59-15.12 11.59-30.24 17.98-45.57 51.94-117.29 86.06-202.575 87.85-316.169-11.69-132.801-42.51-231.203-159.12-310.902" style="fill:#231f20;fill-opacity:1;fill-rule:evenodd;stroke:none" transform="matrix(.13333 0 0 -.13333 0 258.667)" data-source="https://football-logos.cc"></path><path d="m331.148 646.992 37.309 275.442 53.316 23.109 127.934-202.578-53.312-23.086-23.09 42.613-85.297-37.312-7.113-56.84zm62.184 126.199 56.859 24.875-46.203 83.489zm231.023 55.051 8.872-47.969-47.965-21.304-10.68 47.969zm40.852-33.746 35.555 273.654 55.093 24.88 127.938-204.339-53.313-21.359-23.093 40.879-85.297-35.523-5.324-56.883zm62.211 124.399 56.855 26.648-46.203 83.517zm231.02 56.851 8.867-47.984-49.746-23.117-8.891 49.769zm60.402-26.66-46.207 238.134 101.307 44.42c21.3 10.66 37.31 10.66 51.53 5.33 12.43-5.33 23.08-16.01 30.22-30.2 5.3-16 7.09-30.23 5.3-47.99-1.78-16-8.86-31.99-17.74-44.42-10.7-14.22-23.14-24.88-40.87-33.77l-53.32-23.09 17.74-87.082zm23.09 147.504 46.23 21.31c7.08 1.78 12.43 8.89 16 14.22 7.09 5.33 8.87 14.22 8.87 21.33 0 8.87 0 15.98-3.57 24.87-3.57 7.12-10.65 12.45-16 14.23-7.09 0-15.96-1.78-26.66-5.33l-40.85-17.79zm191.95 0 8.87-49.77-49.75-21.33-8.91 49.77zm58.62-26.65-44.4 238.1 101.28 44.42c19.52 10.68 35.53 10.68 49.75 5.36 14.21-5.36 24.87-16.01 30.22-30.23 7.09-15.98 8.87-31.98 7.09-47.96-1.79-16-8.87-32.01-17.74-46.2-10.71-12.47-23.14-23.12-40.88-32.01l-55.1-23.1 19.52-87.07zm24.87 147.48 46.23 21.33c7.08 1.79 12.44 8.87 16 14.22 5.31 5.33 8.87 14.2 8.87 21.31 0 8.89 0 16-5.35 23.11-3.52 8.87-8.87 14.22-14.22 15.98-7.09 0-15.95-1.76-26.66-5.33l-40.83-17.76zm190.17 0 10.65-49.75-49.75-21.33-8.92 49.75z" style="fill:#231f20;fill-opacity:1;fill-rule:evenodd;stroke:none" transform="matrix(.13333 0 0 -.13333 0 258.667)" data-source="https://football-logos.cc"></path><!-- source: https://football-logos.cc --></svg>