<svg xmlns="http://www.w3.org/2000/svg" xml:space="preserve" overflow="visible" viewBox="0 -0.01 273.54 273.54"><metadata xmlns:fl="https://football-logos.cc/brazil/tocantinopolis">dl1_e24591902a1b10c954ac45192402efbb7d7c270ad04600cb8639b74c10ac719b</metadata><!-- Source: https://football-logos.cc --><path fill="#FFF" fill-rule="evenodd" d="M136.77 270.74c73.801 0 133.98-60.176 133.98-133.98 0-73.8-60.176-133.98-133.98-133.98-73.8 0-133.98 60.177-133.98 133.98-.001 73.81 60.176 133.98 133.98 133.98" clip-rule="evenodd" data-source="https://football-logos.cc"></path><path fill="#008837" fill-rule="evenodd" d="M136.77 0c37.651 0 71.868 15.339 96.647 40.118 24.779 24.778 40.118 58.997 40.118 96.648s-15.339 71.87-40.118 96.647-58.996 40.117-96.647 40.117c-37.65 0-71.869-15.339-96.647-40.117C15.34 208.633 0 174.413 0 136.763s15.34-71.87 40.118-96.648C64.897 15.332 99.115-.007 136.77-.007zm92.67 44.087c-23.813-23.814-56.638-38.51-92.679-38.51s-68.865 14.696-92.678 38.51C20.275 67.9 5.579 100.72 5.579 136.77c0 36.042 14.696 68.864 38.509 92.677s56.637 38.512 92.678 38.512 68.865-14.697 92.679-38.512c23.813-23.813 38.509-56.635 38.509-92.677 0-36.05-14.69-68.87-38.51-92.683z" clip-rule="evenodd"></path><path fill="#008837" fill-rule="evenodd" d="M136.77 233.41c53.204 0 96.647-43.441 96.647-96.647 0-53.205-43.443-96.648-96.647-96.648s-96.647 43.443-96.647 96.648c-.005 53.21 43.439 96.65 96.647 96.65z" clip-rule="evenodd" data-source="https://football-logos.cc"></path><path fill="#FFF" fill-rule="evenodd" d="M186.22 91.713c6.758 7.401 11.799 16.305 14.802 26.065h21.133c-6.65-29.927-28.641-54.062-57.28-63.931v165.73c29.391-9.977 51.809-35.183 57.817-66.076h-21.133c-2.682 10.728-8.045 20.379-15.339 28.319zM139.77 69.831c6.866.322 13.517 1.716 19.738 3.969V52.239a88.1 88.1 0 0 0-22.741-3.003c-6.221 0-12.335.644-18.235 1.931v171.2c5.899 1.288 12.014 1.933 18.235 1.933a88 88 0 0 0 22.741-3.006v-21.559a67.3 67.3 0 0 1-19.738 3.967v-57.817h17.485V126.15H139.77V69.841h-.01zM98.686 81.737v133.77a87 87 0 0 1-21.239-14.588V105.88c-.107 0-.107.107-.107.107l-.322.644c-.214.321-.322.644-.536.965 0 .214-.107.43-.214.537a5 5 0 0 1-.322.751c-.107.214-.214.537-.322.751-.107.214-.321.537-.429.858-.107.214-.107.429-.214.643-.107.322-.321.537-.429.859-.107.214-.107.429-.215.644a5 5 0 0 1-.321.75c-.107.215-.107.43-.214.644-.108.322-.215.644-.322 1.073-.107.214-.214.429-.214.643-.107.215-.214.537-.322.75-.107.322-.214.644-.214.859-.107.214-.214.536-.214.751-.108.214-.214.429-.214.644-.108.322-.215.751-.322 1.073 0 .214-.107.429-.107.643-.107.322-.215.537-.215.859a2 2 0 0 0-.214.858c-.107.214-.107.536-.214.751 0 .214-.107.429-.107.644-.107.429-.107.751-.215 1.18 0 .214-.107.429-.107.644-.107.214-.107.537-.107.858-.107.214-.107.429-.214.751 0 .322 0 .645-.108.966 0 .214 0 .429-.107.644 0 .322 0 .644-.107.965v.858c-.107.322-.107.537-.107.751 0 .215 0 .429-.107.644v1.18c0 .214-.107.536-.107.751v2.253H49.236c.322-39.688 27.353-73.263 63.931-83.561v21.56c-5.15 2.083-9.87 4.658-14.484 7.768z" clip-rule="evenodd"></path><path fill="#008837" fill-rule="evenodd" d="m60.821 234.49-13.515-11.694 3.11-3.538 4.505 3.86 9.439-10.724 4.398 3.86-9.439 10.728 4.613 3.967-3.111 3.53zm-8.903-21.24q2.574-2.092 3.54-4.505c.644-1.607.751-3.112.43-4.614-.322-1.608-1.073-3.216-2.468-4.824q-1.93-2.575-4.184-3.541c-1.501-.535-3.003-.751-4.613-.429-1.501.213-3.218 1.073-4.934 2.468-2.468 1.821-3.755 3.968-4.076 6.436-.322 2.359.536 4.827 2.467 7.293 1.93 2.468 4.076 3.863 6.542 4.076 2.361.31 4.828-.44 7.296-2.37zm-3.647-4.72c-1.502 1.289-2.789 1.824-3.862 1.718-1.18 0-2.038-.538-2.789-1.396-.751-.964-1.072-2.036-.858-3.109s1.073-2.146 2.467-3.325c1.609-1.289 3.004-1.931 4.077-1.824 1.072 0 2.038.535 2.788 1.502.751.966 1.073 2.036.858 3.109-.214 1.06-1.073 2.14-2.681 3.32zM33.36 180.64l-.644-5.365c1.395-.322 2.789-.322 3.969 0s2.252.857 3.11 1.607c.858.86 1.716 2.04 2.36 3.542.858 1.93 1.287 3.647 1.287 5.04 0 1.396-.536 2.896-1.501 4.398-1.073 1.502-2.574 2.681-4.72 3.647q-4.344 1.93-7.723.645c-2.253-.86-3.969-2.681-5.149-5.472-.965-2.146-1.287-4.076-.965-5.685.321-1.717 1.18-3.219 2.789-4.614l3.218 4.292c-.537.322-.859.751-.966.967a3 3 0 0 0-.43 1.608c-.107.535 0 .964.322 1.608.537 1.179 1.395 1.93 2.682 2.039.965.213 2.146 0 3.754-.751 1.931-.86 3.111-1.717 3.54-2.684q.643-1.285 0-2.895-.644-1.61-1.931-1.93c-.749-.33-1.822-.33-3.002-.01zm-1.93-21.35 1.501 6.545 3.326.213 1.287 5.899-20.06-2.787-1.501-6.223 16.948-11.263 1.395 6.007-2.896 1.6zm-3.755 2.15-6.114 3.648 7.079.429-.965-4.08zm-14.266-11.37-.107-5.472 10.404-7.402-10.512.214-.107-5.363 18.986-.429.107 5.47-10.297 7.293 10.405-.106.108 5.472-18.987.33zm-.215-24.46 3.432-17.591 4.613.858-1.18 5.899 14.052 2.789-1.073 5.792-14.051-2.789-1.18 5.899-4.613-.86zm4.613-21.99 18.343 5.256 1.609-5.685-18.235-5.256-1.717 5.676zm4.076-13.516 2.467-4.827 12.658-1.609-9.439-4.827 2.575-4.935 16.948 8.688-2.575 4.935-12.55 1.609 9.333 4.72-2.467 4.935zm19.308-16.412c1.716 1.395 3.432 2.252 5.149 2.468 1.717.321 3.218.107 4.612-.537 1.501-.751 2.896-1.824 4.183-3.541 1.396-1.609 2.146-3.218 2.468-4.827.214-1.609 0-3.111-.537-4.613-.644-1.501-1.823-2.896-3.647-4.291q-3.54-2.897-7.08-2.574c-2.468.322-4.612 1.609-6.65 4.077-1.931 2.467-2.789 4.826-2.468 7.294.216 2.468 1.503 4.613 3.97 6.544m3.754-4.504c-1.502-1.288-2.36-2.36-2.575-3.433-.214-1.18.107-2.146.751-3.003.858-.966 1.716-1.501 2.896-1.609 1.073 0 2.253.536 3.647 1.716 1.716 1.287 2.574 2.467 2.788 3.54.215 1.072 0 2.038-.858 3.11-.751.965-1.716 1.395-2.789 1.395-1.071.107-2.358-.537-3.86-1.716m-8.903-12.229 2.79-3.54.429 5.792-1.609 1.931zm14.91-9.44 7.509-6.221c1.609-1.395 3.11-2.038 4.612-1.931s2.79.858 3.969 2.252c1.287 1.501 1.823 3.003 1.609 4.612-.214 1.61-1.18 3.111-3.003 4.613l-2.467 2.038 4.505 5.47-4.505 3.755zm9.761 2.467 1.072-.966c.859-.75 1.396-1.395 1.502-1.931 0-.643-.107-1.18-.537-1.609-.321-.429-.858-.751-1.395-.751-.536-.107-1.287.215-2.145.966l-1.288 1.072zm11.908-7.937c-1.502-2.682-1.931-5.256-1.288-7.616s2.252-4.291 4.935-5.792c2.681-1.609 5.256-2.145 7.616-1.501s4.291 2.252 5.792 4.934c1.072 1.931 1.716 3.647 1.716 5.256.107 1.609-.322 3.111-1.072 4.506-.858 1.394-2.146 2.681-4.077 3.646-1.824 1.073-3.54 1.717-5.042 1.824-1.609.107-3.111-.215-4.613-1.073-1.501-.859-2.787-2.254-3.967-4.184m5.148-2.897c.965 1.609 1.931 2.683 3.003 3.004 1.073.43 2.038.322 3.111-.321q1.769-.966 1.93-2.575c.214-1.073-.214-2.467-1.288-4.291q-1.287-2.414-2.895-2.896c-1.073-.322-2.039-.215-3.111.429-1.073.537-1.716 1.395-1.931 2.468-.213 1.072.216 2.466 1.181 4.182m13.73-17.485 5.578-1.931 4.612 13.517 8.689-3.004 1.502 4.506-14.16 4.827zm19.841-5.792 3.326 18.664 5.792-.965-3.325-18.771-5.8 1.072zm12.34 10.406 5.578-.537c.107.965.429 1.609.751 2.146.644.75 1.501 1.072 2.682 1.072q1.127 0 1.931-.644c.429-.428.644-.858.644-1.394 0-.429-.322-.859-.751-1.287-.429-.43-1.395-.751-3.004-1.073-2.575-.537-4.398-1.288-5.577-2.146-1.073-.965-1.61-2.146-1.717-3.647 0-.965.322-1.93.858-2.789.537-.858 1.395-1.609 2.468-2.145 1.179-.537 2.681-.751 4.719-.858 2.36 0 4.291.429 5.47 1.288 1.288.858 2.038 2.36 2.36 4.291l-5.47.429c-.107-.858-.429-1.501-.966-1.823-.429-.429-1.072-.644-1.931-.536-.751 0-1.18.107-1.501.429-.429.321-.537.644-.537 1.072 0 .322.108.537.429.751.321.322.965.536 2.038.75 2.575.43 4.398.965 5.363 1.502 1.18.536 1.93 1.287 2.467 2.145.536.751.858 1.717.858 2.789 0 1.18-.322 2.36-.965 3.326-.645 1.072-1.609 1.823-2.79 2.467-1.071.537-2.681.751-4.504.859-3.219 0-5.471-.537-6.758-1.824-1.19-1.182-1.94-2.79-2.15-4.613zm33.25-11.586 15.339 3.54-.857 3.969-9.654-2.252-.643 3.003 8.902 2.038-.857 3.754-8.904-2.038-.858 3.647 9.869 2.252-.966 4.291-15.661-3.646zm15.88 16.949c-.536 1.824-.536 3.54 0 5.256.645 1.609 2.467 3.111 5.472 4.398 1.608.751 3.11 1.18 4.506 1.18a6.75 6.75 0 0 0 3.539-.965c.966-.751 1.717-1.609 2.253-2.682.429-.965.536-1.931.429-2.896s-.537-1.93-1.394-2.896c-.751-.965-2.146-2.252-4.293-3.862-.856-.536-1.394-1.072-1.501-1.394-.215-.322-.215-.644-.106-.966.214-.321.536-.536.965-.751.429-.107.965 0 1.502.322q1.126.483 1.609 1.288c.214.536.32 1.179.106 2.037l5.149 2.038c.536-1.931.429-3.54-.322-4.934-.751-1.287-2.359-2.467-4.505-3.432-1.824-.858-3.326-1.287-4.613-1.287-1.18 0-2.252.321-3.109.858-.965.537-1.502 1.288-1.932 2.146-.644 1.395-.644 2.789 0 4.076.645 1.287 2.038 2.79 4.076 4.291 1.287.965 2.146 1.716 2.36 2.253.214.536.214 1.072 0 1.501s-.536.751-1.181.965c-.535.214-1.18.107-1.931-.214-1.073-.537-1.716-1.18-1.931-2.146-.214-.537-.107-1.288.106-2.146l-5.27-2.038zm25.96-1.717 8.261 5.149q2.734 1.77 3.218 3.861c.429 1.395.106 2.897-.859 4.506q-1.608 2.413-3.86 2.896c-1.609.322-3.325-.214-5.363-1.394l-2.789-1.716-3.648 5.9-5.041-3.111 10.08-16.091zm.64 9.976 1.287.751c.965.644 1.716.858 2.359.751.536 0 1.072-.322 1.395-.858.215-.537.322-1.073.215-1.61s-.644-1.18-1.502-1.716l-1.502-.858-2.27 3.54zM211 49.665c-1.61 1.502-2.684 3.111-3.111 4.827-.429 1.609-.429 3.217 0 4.72.536 1.502 1.501 3.003 3.003 4.505s3.003 2.467 4.505 3.003a8.8 8.8 0 0 0 4.721 0c1.502-.429 3.11-1.395 4.72-3.003 2.145-2.146 3.218-4.398 3.325-6.758 0-2.467-1.073-4.827-3.325-7.08-2.145-2.253-4.398-3.326-6.865-3.433-2.37.001-4.73 1.073-6.98 3.219zm4.07 4.29c1.394-1.395 2.573-2.146 3.754-2.146 1.073-.107 2.038.322 2.896 1.18.857.858 1.18 1.823 1.072 3.003-.106 1.072-.751 2.252-2.038 3.433-1.502 1.502-2.789 2.252-3.862 2.36-1.071.107-2.037-.321-3.004-1.287-.856-.859-1.179-1.824-1.071-2.897.1-1.179.86-2.359 2.25-3.646zm4.83 19.094 15.981-10.405 5.256 8.26c1.073 1.502 1.718 2.789 1.932 3.754.215.966.215 1.931-.214 2.896-.322.966-1.073 1.717-2.038 2.36-.966.643-1.824.858-2.682.965-.858 0-1.717-.107-2.576-.537-.535-.321-1.18-.751-1.716-1.395.108.751.214 1.288.214 1.716 0 .215-.105.751-.32 1.288-.214.644-.43 1.073-.536 1.395l-3.111 5.364-3.646-5.578 3.218-5.792c.429-.75.645-1.287.645-1.716s-.108-.966-.431-1.396l-.32-.428-6.437 4.183-3.21-4.934zm12.66-1.18 1.396 2.038c.105.214.536.644 1.072 1.18.321.214.644.429.966.429.429 0 .856 0 1.179-.321.537-.322.751-.751.859-1.18.107-.537-.215-1.288-.751-2.146l-1.396-2.146-3.33 2.146zm15.23 9.868-4.398 1.824 2.254 5.578-13.194 5.364 2.145 5.363 13.302-5.363 2.253 5.578 4.291-1.716-6.65-16.627zm8.04 21.993 3.754 15.232-3.86.966-2.469-9.547-2.896.751 2.253 8.904-3.754.858-2.253-8.796-3.647.858 2.467 9.869-4.183 1.072-3.862-15.661 18.45-4.5zM248.54 149l-1.931 5.04c-1.396-.429-2.574-1.073-3.434-1.824a7.56 7.56 0 0 1-2.038-2.894c-.429-1.183-.535-2.575-.429-4.292.108-2.04.537-3.755 1.287-5.04.644-1.183 1.824-2.254 3.326-3.112 1.609-.751 3.54-1.072 5.898-.965 3.22.322 5.58 1.18 7.08 3.004 1.609 1.715 2.252 4.183 2.038 7.186-.106 2.469-.751 4.29-1.822 5.578-1.073 1.286-2.575 2.146-4.613 2.682l-.858-5.256c.645-.106 1.073-.216 1.287-.429a3.14 3.14 0 0 0 1.181-1.18c.215-.429.429-.967.429-1.501.108-1.396-.322-2.469-1.396-3.22-.75-.535-1.93-.967-3.646-1.073-2.146-.106-3.54.106-4.398.645-.857.642-1.288 1.502-1.395 2.682 0 1.072.215 1.93.751 2.574.63.63 1.49 1.06 2.67 1.39zm9.44 11.58-1.287 5.685-13.945-3.22-2.038 8.903-4.612-.963 3.433-14.698 18.46 4.3zm-10.51 31.32-2.36 5.361-10.299-4.611a9.3 9.3 0 0 1-2.787-1.717c-.751-.751-1.287-1.608-1.716-2.575-.322-.964-.537-1.93-.431-2.787.108-1.289.431-2.575 1.073-4.076.429-.751.857-1.718 1.394-2.682.537-.967 1.182-1.611 1.824-2.146.643-.538 1.394-.967 2.36-1.18.857-.322 1.716-.322 2.467-.216 1.287.106 2.36.429 3.218.751l10.297 4.614-2.358 5.362-10.62-4.721c-.965-.429-1.823-.429-2.574-.213-.751.322-1.287.963-1.716 1.823-.431.964-.537 1.821-.215 2.572.321.751.966 1.289 1.931 1.717l10.52 4.74zm-6.98 12.66-14.91-11.694-6.329 7.94c-.215.429-.751 1.18-1.394 2.252a6.3 6.3 0 0 0-.859 2.144c-.107.967 0 1.824.322 2.684.321.857.857 1.608 1.608 2.144.967.751 2.04 1.18 3.005 1.073q1.608 0 3.218-1.286c-.322.857-.431 1.715-.322 2.359.214 1.072.751 1.93 1.716 2.681s2.252 1.073 3.54.86c1.287-.216 2.574-1.073 3.647-2.469l6.74-8.67zm-9.54.11 2.896 2.253-1.608 2.036c-.536.645-1.072 1.073-1.501 1.183-.537.106-.966-.109-1.396-.432-.429-.319-.643-.751-.751-1.286 0-.429.214-1.072.858-1.717l1.5-2.03zm-5.8-4.62 3.003 2.359-1.824 2.358c-.643.857-1.287 1.289-1.716 1.396-.536.106-1.072 0-1.501-.322-.429-.429-.751-.857-.751-1.396 0-.535.322-1.286.857-2.036l1.93-2.36zm.11 23.39-11.905 10.299-2.683-3.003 7.401-6.545-1.932-2.252-6.972 6.006-2.467-2.894 6.865-6.01-2.469-2.894-7.614 6.647-2.896-3.216 12.121-10.512 12.54 14.35zM96.219 232.88l13.409 5.468-1.502 3.755-7.938-3.217-1.288 3.11 6.865 2.681-1.501 3.648-6.758-2.791-3.004 7.189-5.47-2.253 7.181-17.59zm6.761 17.05-1.609 5.149 5.363 1.608 1.609-5.04-5.36-1.72zm28.74-9.01-1.716 19.309-5.256-.429 1.072-12.657a66 66 0 0 1-2.682 1.392c-.858.322-1.823.645-3.11.86l.429-4.292c1.823-.429 3.218-1.073 4.291-1.714a9.1 9.1 0 0 0 2.574-2.791l4.41.32zm3.97 15.66 5.041-1.18c.214.751.536 1.286.858 1.502.322.322.751.429 1.287.429.751-.106 1.395-.645 1.824-1.502.32-.645.429-2.037.429-4.076-.537.751-1.18 1.289-1.824 1.607q-.965.484-2.252.645c-1.716.106-3.218-.322-4.398-1.395-1.287-1.18-1.931-2.572-2.145-4.396q-.161-1.933.643-3.542c.537-1.073 1.18-1.93 2.146-2.574.965-.642 2.252-.964 3.862-1.18 1.822-.106 3.432.106 4.611.645 1.182.535 2.253 1.502 3.004 2.787.858 1.396 1.395 3.22 1.501 5.578.322 3.432-.106 6.007-1.501 7.725-1.288 1.717-3.218 2.681-5.685 2.896-1.502.106-2.789 0-3.648-.216-.856-.322-1.716-.751-2.359-1.396-.54-.64-.97-1.39-1.4-2.36zm8.8-9.33c0-.967-.32-1.824-.965-2.359q-.805-.805-1.931-.645c-.751 0-1.287.322-1.716.967-.431.535-.536 1.286-.431 2.359.108 1.072.431 1.823.859 2.358.536.538 1.18.751 1.93.751.751-.106 1.288-.429 1.718-1.073.54-.54.65-1.29.54-2.36zm10.3 1.29c-.858-.318-1.609-.641-2.038-1.179-.645-.642-1.073-1.393-1.181-2.359-.321-1.607.216-3.003 1.501-4.292.967-.964 2.469-1.608 4.398-1.931 2.467-.429 4.399-.213 5.793.538a4.3 4.3 0 0 1 2.36 3.217c.214.86.106 1.717-.322 2.468-.215.645-.645 1.286-1.396 1.931 1.181.322 2.038.857 2.683 1.501.644.751.966 1.611 1.18 2.575.214.857.107 1.824-.214 2.681a4.15 4.15 0 0 1-1.182 2.146c-.535.645-1.286 1.073-2.251 1.396-.858.429-1.823.642-2.896.857-1.931.322-3.54.429-4.613.106-1.18-.322-2.038-.857-2.789-1.608-.751-.857-1.18-1.824-1.394-2.897-.215-1.179-.108-2.143.322-3.003.32-.89 1.07-1.53 2.04-2.17zm1.71-4.08c.106.642.429 1.07.857 1.393s1.073.429 1.718.322c.643-.106 1.071-.322 1.394-.857q.483-.645.322-1.608c-.108-.644-.429-1.072-.965-1.395-.431-.429-.967-.538-1.61-.429-.645.106-1.073.429-1.395.964-.32.45-.42.99-.32 1.63zm1.07 8.05c.215.856.537 1.501 1.182 1.93.536.429 1.179.645 1.823.538.644-.109 1.18-.538 1.502-1.18.429-.537.536-1.288.429-2.146-.108-.751-.536-1.396-1.073-1.824-.643-.538-1.287-.645-1.93-.538-.645.109-1.18.432-1.502 1.073-.43.64-.53 1.29-.43 2.15zm12.13-1.08c.643.86 1.286 1.502 2.037 1.93.751.432 1.609.751 2.574.751.965.109 2.146-.213 3.54-.641 2.467-.86 4.076-2.253 4.936-4.187.856-2.036.75-4.611-.431-7.937-.751-2.146-1.716-3.86-2.789-4.934-1.071-1.18-2.358-1.824-3.646-2.037-1.287-.216-2.789-.109-4.612.535-1.502.535-2.682 1.18-3.433 2.037-.858.86-1.395 1.823-1.609 3.003q-.321 1.773.322 3.541c.537 1.824 1.608 3.004 3.111 3.861 1.502.751 3.003.86 4.611.216.858-.216 1.609-.645 2.038-1.18a4.5 4.5 0 0 0 1.396-1.931c.536 2.037.751 3.323.643 4.073-.214.967-.75 1.505-1.501 1.824a2.6 2.6 0 0 1-1.288 0c-.429-.213-.75-.642-1.179-1.286l-4.72 2.38zm6.43-11.15c.322.967.322 1.718 0 2.362-.215.751-.751 1.179-1.502 1.392-.645.216-1.287.216-1.931-.213-.644-.322-1.072-1.072-1.501-2.039-.322-.964-.322-1.824-.108-2.466.322-.645.751-1.073 1.395-1.288.75-.322 1.395-.213 2.146.215.64.32 1.18 1.07 1.5 2.04zM79.7 241.78c2.145 0 3.861-1.715 3.861-3.754a3.846 3.846 0 0 0-3.861-3.861c-2.146 0-3.755 1.718-3.755 3.861 0 2.03 1.61 3.75 3.755 3.75zM193.08 241.78c2.038 0 3.754-1.715 3.754-3.754 0-2.144-1.716-3.861-3.754-3.861a3.846 3.846 0 0 0-3.862 3.861c0 2.03 1.72 3.75 3.86 3.75z" clip-rule="evenodd" data-source="https://football-logos.cc"></path><!-- source: https://football-logos.cc --></svg>